<svg xmlns="http://www.w3.org/2000/svg" xmlns:xlink="http://www.w3.org/1999/xlink" width="144" height="156" viewBox="0 0 144 156"><defs><style>.a{fill:#fff;}.b{clip-path:url(#a);}.c{fill:none;}</style><clipPath id="a"><rect class="a" width="144" height="156" rx="5" transform="translate(0)"/></clipPath></defs><g class="b"><g transform="translate(-0.251 5.683)"><path class="c" d="M0,0H144.4V144.987H0Z"/><path class="a" d="M128.834,41.422a2.786,2.786,0,0,1-1.384-.362c-11.552-5.981-21.54-8.518-33.513-8.518a68.614,68.614,0,0,0-33.513,8.518,3.025,3.025,0,0,1-2.888-5.316,75.306,75.306,0,0,1,36.4-9.243c12.815,0,24.006,2.839,36.28,9.182a3.059,3.059,0,0,1-1.384,5.739Zm-86.1,31.716a3.126,3.126,0,0,1-1.745-.544,3.02,3.02,0,0,1-.722-4.229A62.282,62.282,0,0,1,62.831,48.61c18.892-9.787,43.079-9.847,62.032-.06a62.517,62.517,0,0,1,22.562,19.634,3.029,3.029,0,0,1-.722,4.229,2.992,2.992,0,0,1-4.212-.725,56.55,56.55,0,0,0-20.4-17.761c-17.268-8.88-39.349-8.88-56.556.06A57.147,57.147,0,0,0,45.082,71.869a2.62,2.62,0,0,1-2.347,1.269Zm37.6,72.916a2.817,2.817,0,0,1-2.106-.906A61.044,61.044,0,0,1,66.14,129.2a53.8,53.8,0,0,1-6.317-26.218c0-17.942,15.282-32.562,34.054-32.562s34.054,14.619,34.054,32.562a3.008,3.008,0,1,1-6.017,0c0-14.619-12.575-26.52-28.038-26.52s-28.038,11.9-28.038,26.52a47.481,47.481,0,0,0,5.6,23.258,57.155,57.155,0,0,0,11.131,14.619,3.111,3.111,0,0,1,0,4.289,3.293,3.293,0,0,1-2.226.906Zm43.139-11.176a32.13,32.13,0,0,1-32.971-31.9,3.008,3.008,0,1,1,6.017,0A26.01,26.01,0,0,0,108.2,124.487c4.272,2.9,9.266,4.289,15.282,4.289a39.6,39.6,0,0,0,6.257-.6,3.034,3.034,0,0,1,1.023,5.981,40.925,40.925,0,0,1-7.28.725Zm-12.093,12.445a3.508,3.508,0,0,1-.782-.121c-9.566-2.658-15.824-6.222-22.382-12.686A44.17,44.17,0,0,1,75.165,102.98c0-9.787,8.3-17.761,18.531-17.761s18.531,7.974,18.531,17.761c0,6.464,5.6,11.72,12.515,11.72s12.515-5.256,12.515-11.72c0-22.775-19.554-41.261-43.621-41.261-17.087,0-32.731,9.545-39.77,24.346a39,39,0,0,0-3.55,16.915,60.252,60.252,0,0,0,4.031,21.808,2.991,2.991,0,1,1-5.6,2.114A67.544,67.544,0,0,1,44.36,102.98a45.542,45.542,0,0,1,4.091-19.573c8-16.855,25.751-27.789,45.185-27.789,27.376,0,49.637,21.2,49.637,47.3,0,9.787-8.3,17.761-18.531,17.761s-18.531-7.974-18.531-17.761c0-6.464-5.6-11.72-12.515-11.72s-12.515,5.256-12.515,11.72a38.122,38.122,0,0,0,11.251,27.245c5.716,5.679,11.191,8.82,19.674,11.176a3,3,0,0,1,2.106,3.685A2.938,2.938,0,0,1,111.385,147.322Z" transform="translate(-21.677 -14.418)"/></g></g></svg>