<svg xmlns="http://www.w3.org/2000/svg" width="216" height="136.199" viewBox="0 0 216 136.199"><defs><style>.a{fill:#3f3d56;}.b{fill:#3980be;}.c{fill:#2f2e41;}.d{fill:#a0616a;}.e{opacity:0.15;}.f{opacity:0.1;}</style></defs><g transform="translate(0 0)"><path class="a" d="M964.411,670.424c-.013-.056-1.246-5.681,1.273-10.352s7.9-6.731,7.95-6.752l.246-.092.058.256c.013.056,1.246,5.681-1.273,10.352s-7.9,6.731-7.95,6.751l-.246.092Zm9.131-16.57c-1.077.463-5.328,2.491-7.455,6.436s-1.486,8.612-1.281,9.766c1.077-.462,5.325-2.487,7.455-6.436s1.485-8.611,1.282-9.765Z" transform="translate(-769.227 -543.76)"/><path class="b" d="M972.284,691.539c-4.526,2.723-6.27,8.133-6.27,8.133s5.6.994,10.122-1.729,6.27-8.133,6.27-8.133S976.81,688.816,972.284,691.539Z" transform="translate(-770.771 -573.101)"/><path class="a" d="M279.444,191.047c-.538,0-1.082-.009-1.616-.025l.012-.388c.766.024,1.549.031,2.319.02l.005.388Q279.8,191.047,279.444,191.047Zm3.055-.09-.023-.387c.768-.045,1.545-.109,2.311-.189l.041.386c-.772.081-1.555.145-2.328.191Zm-7-.06c-.774-.059-1.556-.137-2.325-.231l.047-.385c.763.093,1.539.171,2.307.229Zm11.648-.427-.058-.383c.763-.116,1.531-.25,2.283-.4l.076.38c-.758.151-1.532.286-2.3.4Zm-16.285-.142c-.765-.13-1.536-.279-2.294-.443l.082-.379c.752.163,1.518.311,2.276.44Zm20.866-.769-.093-.377c.749-.185,1.5-.39,2.237-.608l.11.372c-.742.22-1.5.426-2.255.613Zm-25.431-.222c-.75-.2-1.5-.419-2.243-.653l.117-.37c.733.232,1.482.449,2.226.647Zm29.909-1.106-.127-.366c.726-.253,1.457-.526,2.172-.812l.144.36c-.72.288-1.456.563-2.189.818Zm-34.369-.3c-.728-.268-1.461-.557-2.178-.859l.151-.358c.711.3,1.439.586,2.162.852Zm38.7-1.43-.161-.353c.7-.317,1.4-.655,2.084-1.006l.177.346c-.691.353-1.4.694-2.1,1.013Zm4.152-2.122-.192-.337c.669-.382,1.337-.783,1.985-1.193l.207.328c-.653.413-1.326.817-2,1.2Zm3.943-2.494-.222-.318c.63-.44,1.259-.9,1.868-1.37l.236.308c-.615.472-1.248.937-1.883,1.38Zm-59.14-.546c-.626-.455-1.252-.931-1.86-1.417l.242-.3c.6.481,1.224.954,1.845,1.406Zm62.842-2.3-.25-.3c.587-.5,1.171-1.012,1.737-1.535l.263.285c-.57.527-1.159,1.047-1.75,1.546Zm-66.494-.618c-.583-.511-1.163-1.042-1.722-1.579l.269-.28c.555.533,1.13,1.06,1.709,1.567Zm69.923-2.553-.276-.272c.541-.549,1.077-1.116,1.591-1.687l.288.26c-.518.575-1.058,1.147-1.6,1.7Zm-73.293-.681c-.535-.563-1.064-1.144-1.571-1.729l.293-.254c.5.58,1.028,1.157,1.559,1.715Zm76.421-2.79-.3-.246c.489-.6.97-1.209,1.431-1.826l.311.232C319.866,171.175,319.381,171.794,318.888,172.394Zm-79.482-.737c-.481-.607-.954-1.234-1.406-1.863l.315-.227c.449.624.919,1.246,1.4,1.849Zm82.281-3.007-.321-.218c.433-.637.857-1.293,1.26-1.949l.331.2C322.55,167.348,322.123,168.008,321.687,168.65Zm-85.007-.782c-.423-.648-.837-1.315-1.23-1.983l.334-.2c.39.663.8,1.325,1.221,1.968Zm87.455-3.2-.34-.188c.373-.674.734-1.366,1.076-2.058l.348.172c-.344.7-.709,1.394-1.084,2.073Zm2.072-4.195-.355-.156c.309-.706.606-1.429.883-2.149l.362.139c-.279.726-.578,1.454-.889,2.166Zm-93.884-.837c-.3-.714-.582-1.444-.847-2.171l.365-.133c.262.721.545,1.446.84,2.154Zm95.562-3.534-.368-.122c.242-.73.471-1.475.679-2.217l.374.1c-.21.747-.441,1.5-.685,2.234Zm-97.156-.85c-.231-.74-.448-1.495-.645-2.246l.375-.1c.2.745.411,1.495.64,2.229Zm98.42-3.646-.378-.088c.174-.748.332-1.512.472-2.27l.382.07C329.485,150.079,329.325,150.849,329.15,151.6Zm-99.605-.872c-.162-.758-.308-1.53-.435-2.3l.383-.064c.126.76.271,1.526.432,2.278ZM330,147.009l-.385-.053c.1-.76.193-1.535.262-2.3l.386.035C330.189,145.462,330.1,146.243,330,147.009Zm-101.216-.886c-.092-.768-.167-1.55-.223-2.325l.387-.028c.056.769.131,1.545.222,2.308Zm101.638-3.766-.388-.017c.034-.769.052-1.549.052-2.318h.388C330.47,140.8,330.452,141.583,330.417,142.357Zm-101.979-.893c-.013-.476-.02-.961-.02-1.442q0-.448.008-.894l.388.007q-.008.443-.008.887c0,.478.007.959.02,1.432Zm.468-4.646-.387-.024c.048-.775.115-1.558.2-2.328l.386.042c-.083.763-.149,1.54-.2,2.31Zm100.925-2.367c-.077-.765-.184-1.138-.3-1.9l.384-.057c.113.767.211,1.353.289,2.124ZM229.405,132.21l-.383-.059c.119-.768.257-1.541.411-2.3l.38.077c-.152.753-.289,1.52-.407,2.282Zm99.737-1.943c-.148-.757-.315-1.519-.5-2.265l.377-.092c.183.751.351,1.519.5,2.282Zm-98.818-2.6-.376-.094c.188-.752.4-1.509.62-2.252l.372.112C230.719,126.169,230.512,126.921,230.325,127.666Zm97.722-1.9c-.216-.739-.453-1.482-.7-2.209l.367-.126c.252.733.49,1.482.708,2.226Zm-96.386-2.542-.366-.129c.258-.734.536-1.471.827-2.191l.36.146c-.289.714-.566,1.446-.821,2.174Zm94.879-1.842c-.283-.714-.586-1.431-.9-2.13l.354-.159c.317.7.623,1.427.908,2.146ZM233.4,118.914l-.353-.162c.324-.706.669-1.414,1.025-2.1l.345.178C234.066,117.512,233.723,118.214,233.4,118.914Zm91.239-1.753c-.347-.685-.715-1.371-1.094-2.04l.338-.191c.381.674.752,1.365,1.1,2.056Zm-89.109-2.373-.336-.194c.387-.672.8-1.345,1.213-2l.327.209C236.321,113.454,235.916,114.122,235.532,114.789Zm86.829-1.656c-.41-.653-.839-1.3-1.276-1.933l.319-.221c.44.635.873,1.29,1.286,1.948Zm-84.332-2.255-.317-.224c.447-.634.915-1.267,1.39-1.879l.307.238C238.937,109.621,238.473,110.248,238.029,110.878Zm81.692-1.551c-.468-.612-.955-1.221-1.448-1.81l.3-.249c.5.593.987,1.206,1.459,1.823Zm-78.849-2.115-.3-.252c.5-.59,1.025-1.176,1.555-1.744l.284.265C241.89,106.045,241.37,106.627,240.872,107.212Zm75.873-1.437c-.521-.567-1.062-1.13-1.607-1.671l.274-.275c.549.546,1.094,1.112,1.619,1.684Zm-72.709-1.953-.271-.277c.555-.543,1.129-1.079,1.706-1.6l.258.289c-.573.512-1.143,1.044-1.694,1.583Zm69.422-1.315c-.571-.518-1.161-1.029-1.753-1.519l.247-.3c.6.493,1.191,1.008,1.766,1.53Zm-65.965-1.772-.245-.3c.6-.489,1.22-.971,1.844-1.433l.231.312c-.618.459-1.234.937-1.829,1.422Zm3.722-2.758L251,97.655c.642-.432,1.3-.855,1.965-1.258l.2.332c-.657.4-1.313.82-1.95,1.248Zm3.956-2.406-.186-.34c.68-.372,1.376-.733,2.071-1.072l.171.349C256.535,94.844,255.844,95.2,255.169,95.571Zm46.829-.9c-.69-.344-1.4-.676-2.1-.988l.157-.355c.71.314,1.423.649,2.118,1Zm-42.673-1.134-.154-.356c.71-.308,1.437-.6,2.159-.877l.138.363C260.751,92.94,260.03,93.233,259.326,93.538Zm38.425-.744c-.718-.279-1.454-.544-2.186-.79l.123-.368c.737.248,1.478.515,2.2.8Zm-34.1-.9-.121-.369c.737-.242,1.49-.469,2.236-.676l.1.374c-.741.205-1.487.431-2.219.671Zm29.7-.577c-.74-.211-1.495-.407-2.243-.584l.089-.378c.755.178,1.515.376,2.261.588Zm-25.23-.663-.086-.378c.756-.173,1.526-.33,2.289-.468l.069.382C269.635,90.328,268.87,90.484,268.12,90.655Zm20.718-.4c-.756-.142-1.525-.268-2.288-.375l.054-.384c.768.108,1.544.235,2.305.378Zm-16.157-.422-.051-.385c.768-.1,1.549-.189,2.322-.256l.034.387C274.22,89.645,273.444,89.73,272.682,89.832Zm11.566-.223c-.764-.072-1.542-.127-2.312-.165l.019-.388c.776.038,1.56.094,2.33.166Zm-6.948-.18-.016-.388c.713-.03,1.44-.045,2.161-.045h.176v.388h-.174c-.715,0-1.437.015-2.144.045Z" transform="translate(-217.279 -88.996)"/><rect class="a" width="142.212" height="0.388" transform="translate(73.788 126.554)"/><path class="c" d="M642.787,405l1.94,30.072s4.656,11.835,4.462,23.088c0,0-1.746,4.462-.388,5.238s2.134,1.358,1.358,1.94-1.358,1.94-.776,2.328.776.97.582.97h-5.82s1.164-2.91-.582-3.686-.776-2.716-.776-2.716l-13-38.027-10.283,34.922s1.746,1.164.388,1.746-1.94-.582-1.358.582a1.806,1.806,0,0,1-.194,1.94c0,.194-5.82-.582-5.82-.582s2.91-2.522,1.552-3.1-1.94-1.164-1.552-1.552a36.767,36.767,0,0,0,1.94-4.074s.776-13.969.97-14.551a36.725,36.725,0,0,0,0-4.656c0-1.358-.194-6.791.388-8.149s1.164-18.043,4.268-19.983S642.787,405,642.787,405Z" transform="translate(-501.124 -343.686)"/><path class="c" d="M578.326,699.185s3.88,7.954,1.164,8.925-6.208.194-6.984,1.358-9.313,2.522-9.507-.388,9.313-8.343,9.313-8.343l1.238-1.994Z" transform="translate(-467.151 -580.444)"/><path class="c" d="M740.326,729.185s3.88,7.955,1.164,8.925-6.208.194-6.984,1.358-9.313,2.522-9.507-.388,9.313-8.343,9.313-8.343l1.238-1.994Z" transform="translate(-589.541 -604.623)"/><circle class="d" cx="6.402" cy="6.402" r="6.402" transform="translate(123.354 11.937)"/><path class="d" d="M529.16,112.025l-.776,5.626-5.82,4.462-1.552-2.134v-7.373Z" transform="translate(-395.089 -90.291)"/><path class="a" d="M655.578,231.573s6.014.582,9.119-1.552L670.9,266.69s-21.924,1.746-22.894.582V255.825l3.88-18.625Z" transform="translate(-530.519 -202.66)"/><path class="b" d="M707.585,220.985l2.086,1.753s8.537,1.358,7.954,3.686l-2.328,27.55.776,9.313s-6.6-1.746-11.641,0-1.037-37.523-1.037-37.523S708.021,221.56,707.585,220.985Z" transform="translate(-572.367 -195.377)"/><path class="b" d="M649.294,231.931s-6.208,4.48-6.984,7.39-3.3,33.564-3.3,33.564,1.164-.582,1.746.388S650.264,233.465,649.294,231.931Z" transform="translate(-525.599 -204.2)"/><path class="c" d="M676.5,140.7a3.061,3.061,0,0,1-.427-2.159,6.54,6.54,0,0,0,.187-1.946,19.269,19.269,0,0,1,1.12-2.826c.56-1.013.293-1.44,2.053-1.759s1.04-2.612,5.678-.133a1.36,1.36,0,0,0,1.413.533c.96-.187,1.306,1.146,1.306,1.146s.64-.373.88.16,1.951-.32,1.951,3.279a14.9,14.9,0,0,1-1.947,6.813s.143-6.054-3.03-6.667-6.585-2.4-7.411-.107A17.485,17.485,0,0,1,676.5,140.7Z" transform="translate(-552.983 -122.635)"/><ellipse class="d" cx="0.626" cy="0.834" rx="0.626" ry="0.834" transform="translate(136.11 17.831)"/><path class="b" d="M589.31,491.041a6.985,6.985,0,0,0-4.09-.782,6.03,6.03,0,0,0,6.7,4.03A6.989,6.989,0,0,0,589.31,491.041Z" transform="translate(-476.279 -412.378)"/><path class="b" d="M594.654,588.87h-9.6a2.159,2.159,0,1,0,0,4.318h9.6a2.159,2.159,0,1,0,0-4.318Z" transform="translate(-474.647 -491.888)"/><path class="b" d="M624.153,471.412h-53.8a4.765,4.765,0,0,0-4.765,4.766v26.211a4.766,4.766,0,0,0,4.766,4.766h53.8a4.766,4.766,0,0,0,4.766-4.766V476.177a4.765,4.765,0,0,0-4.765-4.765Zm-55.128,3.251a6.576,6.576,0,0,1,7.631,4.591l.084.262-.271.048a7.181,7.181,0,0,1-1.167.086,6.951,6.951,0,0,1-3.544-.893,7.528,7.528,0,0,1-2.92-3.784l-.084-.262ZM580.7,499h-9.6a2.639,2.639,0,1,1,0-5.277h9.6a2.639,2.639,0,0,1,0,5.277Zm43.658-.48a2.887,2.887,0,0,1-2.878,2.879h-7.2a2.887,2.887,0,0,1-2.879-2.878V494.2a2.887,2.887,0,0,1,2.879-2.879h7.2a2.887,2.887,0,0,1,2.879,2.879Z" transform="translate(-460.928 -397.218)"/><path class="b" d="M811.884,606.8h-3.118a.84.84,0,1,0,0,1.679h3.118a.84.84,0,1,0,0-1.679Zm0,1.2h-3.118a.36.36,0,1,1,0-.72h3.118a.36.36,0,1,1,0,.72Z" transform="translate(-656.587 -506.337)"/><path class="b" d="M841.557,606.8h-3.118a.84.84,0,1,0,0,1.679h3.118a.84.84,0,1,0,0-1.679Zm0,1.2h-3.118a.36.36,0,1,1,0-.72h3.118a.36.36,0,0,1,0,.72Z" transform="translate(-679.116 -506.337)"/><path class="b" d="M811.884,595.67h-3.118a.84.84,0,0,0,0,1.679h3.118a.84.84,0,0,0,0-1.679Zm0,1.2h-3.118a.36.36,0,1,1,0-.72h3.118a.36.36,0,1,1,0,.72Z" transform="translate(-656.587 -497.368)"/><path class="b" d="M841.557,595.67h-3.118a.84.84,0,0,0,0,1.679h3.118a.84.84,0,0,0,0-1.679Zm0,1.2h-3.118a.36.36,0,1,1,0-.72h3.118a.36.36,0,0,1,0,.72Z" transform="translate(-679.116 -497.368)"/><path class="b" d="M811.884,584.542h-3.118a.84.84,0,0,0,0,1.679h3.118a.84.84,0,0,0,0-1.679Zm0,1.2h-3.118a.36.36,0,1,1,0-.72h3.118a.36.36,0,1,1,0,.72Z" transform="translate(-656.587 -488.399)"/><path class="b" d="M841.557,584.542h-3.118a.84.84,0,0,0,0,1.679h3.118a.84.84,0,0,0,0-1.679Zm0,1.2h-3.118a.36.36,0,1,1,0-.72h3.118a.36.36,0,0,1,0,.72Z" transform="translate(-679.116 -488.399)"/><path class="d" d="M746.069,435.379l-1.391,4.538s-.355,8.461-5.012,7.3,1.358-11.059,1.358-11.059l1.358-2.134Z" transform="translate(-600.883 -367.082)"/><path class="d" d="M610.069,435.379l-1.391,4.538s-.355,8.461-5.012,7.3,1.358-11.059,1.358-11.059l1.358-2.134Z" transform="translate(-497.754 -367.082)"/><path class="b" d="M758.085,241.853s3.1-.776,4.074,4.462,2.134,20.177,2.134,20.177l-4.656,15.715s-4.656-2.522-5.626-2.134l3.664-13.643-3.082-13.907S757.309,241.853,758.085,241.853Z" transform="translate(-612.745 -212.164)"/><path class="e" d="M580.747,209.393l4.074,13.581-4.074,13.775,2.328-13.775Z" transform="translate(-441.048 -168.768)"/><path class="b" d="M627,297.021l-6.984,27.55a27.425,27.425,0,0,1,5.042,2.186Z" transform="translate(-511.639 -256.661)"/><circle class="a" cx="19.401" cy="19.401" r="19.401" transform="translate(1.428 70.792)"/><circle class="f" cx="16.685" cy="16.685" r="16.685" transform="translate(4.144 73.509)"/><path class="b" d="M260.789,522.622v-2.429a5.639,5.639,0,0,1-3.238-1.058l.508-1.611a5.177,5.177,0,0,0,3.048,1.034,2.334,2.334,0,0,0,2.519-2.356c0-1.323-.826-2.14-2.392-2.861-2.159-.962-3.492-2.068-3.492-4.16a3.78,3.78,0,0,1,3.2-3.871v-2.429h1.312v2.332a5.15,5.15,0,0,1,2.752.841l-.529,1.587a4.677,4.677,0,0,0-2.667-.818,2.032,2.032,0,0,0-2.244,2.068c0,1.25.783,1.875,2.625,2.741,2.18,1.01,3.281,2.26,3.281,4.4a4.024,4.024,0,0,1-3.344,4.088v2.5Z" transform="translate(-240.759 -422.582)"/><path class="a" d="M212.325,737.945a140.081,140.081,0,0,1-41.325,0v-4.656a155.662,155.662,0,0,0,41.325,0Z" transform="translate(-171 -608.287)"/><path class="a" d="M212.325,700.945a140.073,140.073,0,0,1-41.325,0v-4.656a155.667,155.667,0,0,0,41.325,0Z" transform="translate(-171 -578.466)"/><path class="a" d="M212.325,663.945a140.085,140.085,0,0,1-41.325,0v-4.656a155.656,155.656,0,0,0,41.325,0Z" transform="translate(-171 -548.644)"/></g></svg>