<svg xmlns="http://www.w3.org/2000/svg" xmlns:xlink="http://www.w3.org/1999/xlink" width="216.268" height="135.83" viewBox="0 0 216.268 135.83"><defs><style>.a{fill:#85848b;}.b{fill:#504f60;}.c{opacity:0.2;}.d,.h{fill:#3980be;}.e{fill:#514e7f;}.f{fill:#464353;}.g{fill:#a1616a;}.h{opacity:0.928;}.i,.t{opacity:0.1;}.j{fill:#33323d;}.k{fill:#8dd070;}.l{fill:#fbbebe;}.m,.q{opacity:0.05;}.n{fill:#3f3d56;}.o{fill:url(#a);}.p{fill:#2d293d;}.r{fill:#ffcdd3;}.s{fill:#235784;}</style><linearGradient id="a" x1="0.5" y1="1" x2="0.5" gradientUnits="objectBoundingBox"><stop offset="0" stop-color="gray" stop-opacity="0.251"/><stop offset="0.54" stop-color="gray" stop-opacity="0.122"/><stop offset="1" stop-color="gray" stop-opacity="0.102"/></linearGradient></defs><rect class="a" width="216.268" height="1.491" transform="translate(0 134.339)"/><path class="b" d="M796.83,650.26c0,1.147-6.684,4.49-14.624,4.49s-14.126-3.343-14.126-4.49,6.435-.777,14.383-.777S796.83,649.112,796.83,650.26Z" transform="translate(-625.908 -542.969)"/><path class="c" d="M796.83,653.72c0,1.147-6.684,4.49-14.624,4.49s-14.126-3.343-14.126-4.49" transform="translate(-625.908 -546.424)"/><path class="d" d="M502.314,532.831a8.873,8.873,0,0,0,3.86-.13c.194-.06.408-.194.389-.389a.471.471,0,0,0-.087-.194,12.009,12.009,0,0,1-1.166-2.222.194.194,0,0,0-.072-.1.183.183,0,0,0-.124,0c-.569.15-1.061.517-1.627.674a2.313,2.313,0,0,1-.886.066c-.257-.029-.606-.241-.84-.214C501.892,531.171,502.215,531.964,502.314,532.831Z" transform="translate(-415.657 -447.346)"/><path class="d" d="M624.135,516.118a6.744,6.744,0,0,0,2.231-2.1.364.364,0,0,0,.06-.181.374.374,0,0,0-.072-.175,7.222,7.222,0,0,0-1.813-1.957,5.288,5.288,0,0,0-1.011.933c-.214.225-.8.583-.81.927,0,.194.225.42.33.583.142.21.276.424.4.641A7.6,7.6,0,0,1,624.135,516.118Z" transform="translate(-511.694 -432.87)"/><path class="e" d="M476.013,541.183a.865.865,0,0,1-.156.564.764.764,0,0,1-.327.194c-1.8.645-3.887-.159-5.685.476-.369.13-.719.319-1.09.443a5.93,5.93,0,0,1-1.361.241c-.636.06-1.275.1-1.913.117a4.6,4.6,0,0,1-1.442-.126,1.732,1.732,0,0,1-1.106-.877.842.842,0,0,1-.054-.624A.673.673,0,0,1,463,541.4a1.705,1.705,0,0,1,.424-.344l.663-.428a4.45,4.45,0,0,1,1-.532c.262-.086.54-.122.807-.194a5.475,5.475,0,0,0,2.3-1.72l.9-.962a.908.908,0,0,1,.313-.251.866.866,0,0,1,.389-.037,5.2,5.2,0,0,1,2.459.824,3.185,3.185,0,0,0,.606.358,2.165,2.165,0,0,0,1.695-.21c.231-.124.181-.194.278-.416s.334-.363.54-.161a.572.572,0,0,1,.128.245,6.893,6.893,0,0,1,.12,2,.884.884,0,0,0,.039.311,1.763,1.763,0,0,0,.177.288.656.656,0,0,1,.037.074A1.976,1.976,0,0,1,476.013,541.183Z" transform="translate(-384.572 -452.992)"/><path class="f" d="M476.013,554.935a.865.865,0,0,1-.156.564.764.764,0,0,1-.327.194c-1.8.645-3.887-.159-5.685.476-.369.13-.719.319-1.09.443a5.934,5.934,0,0,1-1.361.241c-.636.06-1.275.1-1.913.117a4.6,4.6,0,0,1-1.442-.126,1.732,1.732,0,0,1-1.106-.877.842.842,0,0,1-.054-.624.673.673,0,0,1,.119-.194c.1.22.181.511.247.616a1.261,1.261,0,0,0,.844.608,2.1,2.1,0,0,0,.777-.1c1.633-.4,3.368-.41,4.937-1.022a11.418,11.418,0,0,1,1.617-.622,12.712,12.712,0,0,1,1.749-.142c.921-.074,1.813-.352,2.721-.5A1.977,1.977,0,0,1,476.013,554.935Z" transform="translate(-384.572 -466.707)"/><path class="e" d="M608.927,520.88a3.276,3.276,0,0,1-1,1.773,11.6,11.6,0,0,0-1.394,1.524,12.272,12.272,0,0,1-1.283,2.2,3.517,3.517,0,0,1-.777.554,5.425,5.425,0,0,1-1,.461,7.466,7.466,0,0,1-2.828.154,2.543,2.543,0,0,1-.9-.173,2.713,2.713,0,0,1-.373-.229,1.782,1.782,0,0,1-.583-.583.583.583,0,0,1-.056-.424,1,1,0,0,1,.27-.412,6.406,6.406,0,0,1,.684-.616,4.1,4.1,0,0,0,.89-.777,2.511,2.511,0,0,0,.344-.777,6.892,6.892,0,0,0,.251-1.487,4.713,4.713,0,0,1,.1-1c.144-.513.525-.972.482-1.5a.375.375,0,0,1,.019-.227.317.317,0,0,1,.179-.111,3.164,3.164,0,0,1,.929-.216,1.083,1.083,0,0,1,.863.338c.132.159.22.389.414.451a.656.656,0,0,0,.3.012,2.475,2.475,0,0,0,1.361-.418,1.7,1.7,0,0,0,.564-1.238c0-.177-.08-.362.194-.389.206-.027.369.194.474.33a4.605,4.605,0,0,1,.91,1.656.489.489,0,0,1,.173-.033.753.753,0,0,1,.62.317A1.234,1.234,0,0,1,608.927,520.88Z" transform="translate(-492.44 -437.608)"/><path class="f" d="M609.232,528.865a3.276,3.276,0,0,1-1,1.773,11.6,11.6,0,0,0-1.394,1.524,12.272,12.272,0,0,1-1.283,2.2,3.52,3.52,0,0,1-.777.554,5.426,5.426,0,0,1-1,.461,7.47,7.47,0,0,1-2.828.154,2.545,2.545,0,0,1-.9-.173,2.713,2.713,0,0,1-.373-.229,1.782,1.782,0,0,1-.583-.583,1.423,1.423,0,0,1,.583-.14c.42.023.727.42,1.129.542.573.173,1.145-.231,1.726-.369.379-.089.777-.066,1.153-.194a2.849,2.849,0,0,0,.853-.517,4.34,4.34,0,0,0,.912-.878,5.647,5.647,0,0,0,.534-1.067,15.251,15.251,0,0,1,1.081-2.068,1.464,1.464,0,0,1,.22-.288,3.074,3.074,0,0,1,.3-.216,2.259,2.259,0,0,0,.686-1.252,2.193,2.193,0,0,1,.154-.418.752.752,0,0,1,.62.317A1.235,1.235,0,0,1,609.232,528.865Z" transform="translate(-492.742 -445.571)"/><path class="g" d="M438.4,202.093a4.122,4.122,0,0,1,1.166,1.361c.272.533,1.841,4.665,1.749,5.265.511-.515,2.527-.6,3.044-1.114.216-.216,1.38-1.293,1.555-1.543s1.473-.777,1.615-1.042c.531-.95-3.763-4.552-3.213-5.491a.245.245,0,0,0,.045-.148.241.241,0,0,0-.072-.115,6.438,6.438,0,0,0-1.242-.849,1.97,1.97,0,0,1-.947-1.127,4.082,4.082,0,0,0-1.1.742q-1.182,1.013-2.323,2.066c-.3.276-.873.643-1.011,1.038C437.5,201.56,438.114,201.861,438.4,202.093Z" transform="translate(-364.655 -181.924)"/><path class="h" d="M454.879,214.13a12.648,12.648,0,0,0-1.839,1.5,3.66,3.66,0,0,0-1.166,1.874c-.054.29-.047.583-.091.877-.194,1.273-1.294,2.206-1.78,3.4a5.891,5.891,0,0,0-.309,1.137,13.438,13.438,0,0,0-.224,2.231c-.012.725.7,1.224.96,1.9a11.611,11.611,0,0,1,.463,2.066,24.486,24.486,0,0,0,1.166,3.829c.958,2.647,4.064,9.965,5.022,12.614,2.937-.737,10.754-2.43,13.355-3.983.867-.517-6.016-6.35-5.089-6.752a.346.346,0,0,0,.26-.488c-.927-4.054-3.827-7.386-5.143-11.333a34.389,34.389,0,0,0-1.9-3.843c-.564-1.18-.865-2.484-1.539-3.605a2.273,2.273,0,0,0-.492-.612,2.9,2.9,0,0,0-.542-.328C455.607,214.429,455.25,214.319,454.879,214.13Z" transform="translate(-373.768 -195.491)"/><circle class="g" cx="4.597" cy="4.597" r="4.597" transform="translate(69.053 10.515)"/><path class="f" d="M466.4,205.4a1.541,1.541,0,0,1,1.728-.249.835.835,0,0,1,.513.83l2.28.035a4.578,4.578,0,0,1,1.081.1,1.571,1.571,0,0,1,.9.566c.027.037.058.082.1.087a.167.167,0,0,0,.1-.035,1.979,1.979,0,0,1,1.135-.194A6.132,6.132,0,0,1,477.586,208a1.079,1.079,0,0,1,.389.484c.08.258-.016.583.194.768a27.366,27.366,0,0,0,1.224,6.22,2.789,2.789,0,0,0,.69.991,4,4,0,0,1,.737,1.1c.416,1.081-.157,2.352.247,3.436a5.887,5.887,0,0,0,.777,1.234,3.192,3.192,0,0,1,.665,1.594c.018.26-.016.523,0,.777a4.705,4.705,0,0,0,.194,1.032q.249.941.521,1.88a4.266,4.266,0,0,0,1.586,2.639c-2.187.371-4.492.735-6.575-.025a3.408,3.408,0,0,1-.82-.41,4.725,4.725,0,0,1-1.44-2.321,10.958,10.958,0,0,1-.8-3,3.436,3.436,0,0,0-.138-.972,2.767,2.767,0,0,0-1.291-1.217,6.2,6.2,0,0,1-1.555-1.209,2.416,2.416,0,0,1-.63-1.815c.039-.321.165-.63.177-.952a.746.746,0,0,0-.441-.777c-1.592-.482-2.352-2.367-2.706-3.992a12.813,12.813,0,0,1-.2-2.546l-.021-1.658a2.189,2.189,0,0,1-.715-1.572,1.866,1.866,0,0,0-.01-.521,1.436,1.436,0,0,0-.365-.554A4.945,4.945,0,0,1,466.4,205.4Z" transform="translate(-387.258 -188.126)"/><path class="f" d="M439.883,228.467a12.731,12.731,0,0,1-.051,1.543c-.045.194-.122.389-.179.569a3.343,3.343,0,0,0,.212,2.163,12.048,12.048,0,0,0,1.106,1.914,3.108,3.108,0,0,1,.354.663,3.433,3.433,0,0,1,.136.756,23.485,23.485,0,0,0,.54,3.055c.218.871,2.69,8.315,3.265,9a.733.733,0,0,0,.443.3.806.806,0,0,0,.377-.078l1.166-.447a.762.762,0,0,0,.27-.148.7.7,0,0,0,.167-.459c.084-.948-2.395-8.445-2.709-9.341a71.449,71.449,0,0,1-2.84-8.115,5.9,5.9,0,0,0-.834-2.595c-.235-.257-.155-.148-.437-.014a3.191,3.191,0,0,0-.412.216A1.349,1.349,0,0,0,439.883,228.467Z" transform="translate(-366.221 -205.186)"/><path class="f" d="M556.62,320.79" transform="translate(-459.33 -280.245)"/><path class="d" d="M458.277,227.565c.313,1.654.636,3.3.956,4.958l4.564-1.2a3.207,3.207,0,0,0-.389-1.361c-.416-1.044-.426-2.206-.762-3.279-.255-.816-.7-1.567-.937-2.389-.138-.478-.208-.972-.344-1.456a10.57,10.57,0,0,0-.536-1.39,8.7,8.7,0,0,0-1-1.844,2.9,2.9,0,0,0-1.537,1,2.153,2.153,0,0,0-.284.972c-.08,1.024.292,2.054.169,3.073A9.038,9.038,0,0,0,458.277,227.565Z" transform="translate(-382.905 -199.905)"/><path class="f" d="M477.7,332.844a5.45,5.45,0,0,1-.418,2.956,22.915,22.915,0,0,0-.929,4.451,3.851,3.851,0,0,1-.229,1.125c-.144.325-.389.6-.556.908a4.559,4.559,0,0,0-.348,2.733c.066.612.165,1.223.288,1.825a4.617,4.617,0,0,1,.119,2.225c.361-.08.606.389.583.756a2.017,2.017,0,0,0,.035,1.094c.447.163.451.777.437,1.254a10.543,10.543,0,0,0,.311,2.449q1.015,4.879,2.154,9.73c1.642.509,3.561,1.04,5.127.334a1.028,1.028,0,0,0,.649-.653,1.139,1.139,0,0,0-.062-.5l-.742-2.7a4.96,4.96,0,0,1-.266-2c.072-.5.29-1.038.045-1.479-.084-.152-.216-.27-.313-.414-.389-.569-.185-1.331-.154-2.021a1.6,1.6,0,0,0-.031-.463,2.309,2.309,0,0,0-.222-.507,7.759,7.759,0,0,1-.855-3.86.954.954,0,0,0-.068-.5,1.628,1.628,0,0,1-.126-.206.564.564,0,0,1,.041-.371,3.4,3.4,0,0,1-.6-.583.838.838,0,0,0,.144-1.31.437.437,0,0,0,.208-.752c-.1-.066-.222-.1-.29-.194-.1-.144-.019-.344.066-.5l.453-.818c.338-.608.414-1.361.777-1.944a14.566,14.566,0,0,0,1.2-2.733l1.308-3.609.88.764a2.784,2.784,0,0,1,.723.824,3.557,3.557,0,0,1,.235.987c.323,1.959,1.555,3.658,2.012,5.588a3.679,3.679,0,0,0,.416,1.248,2.716,2.716,0,0,1,.237.358,1.9,1.9,0,0,1,.1.593,2.766,2.766,0,0,0,1.166,1.983c.433.3.972.5,1.207.972a1.809,1.809,0,0,0,.194.414c.21.253.663.282.752.6.051.177-.043.389.056.544a.515.515,0,0,0,.216.161l1.265.632c1.415.707,2.138,2.332,3.182,3.516a7.578,7.578,0,0,1,.952,1.259c.451.807.659,1.819,1.421,2.332a2.151,2.151,0,0,1,.552.41c.239.315.152.756.173,1.153s.325.869.7.748a2.766,2.766,0,0,0,0,1.467,7.386,7.386,0,0,0,4.482-1.815,1.768,1.768,0,0,0,.729-1.224.439.439,0,0,0-.054-.243.694.694,0,0,0-.286-.216c-1.184-.641-1.539-2.128-2.138-3.335a28.9,28.9,0,0,0-1.944-2.972c-1.407-2.128-2.367-4.7-4.5-6.109a3.059,3.059,0,0,1-1.248-1.094c-.13-.286-.146-.612-.249-.908a.788.788,0,0,0-.665-.583,4.073,4.073,0,0,0,.152-1.411,1.782,1.782,0,0,0-.07-.608,2.96,2.96,0,0,0-.313-.6,5.781,5.781,0,0,1-.8-3.11,5.1,5.1,0,0,0-.054-1.677c-.086-.27-.235-.517-.338-.777a4.858,4.858,0,0,1-.243-1.462l-.117-1.868a9.19,9.19,0,0,0-.241-1.846c-.389-1.45-.777-7.524-2.109-8.208s-3.619,3.99-5.118,4.082a6.664,6.664,0,0,0-1.944.375,9.469,9.469,0,0,0-2.647,1.749l-2.756,2.315A10.158,10.158,0,0,1,477.7,332.844Z" transform="translate(-393.81 -281.439)"/><path class="f" d="M415.3,164.3a3.465,3.465,0,0,1,2.674-1.3,6.229,6.229,0,0,1,2.956.742,3.652,3.652,0,0,0,.863.354c.486.1,1.026-.033,1.466.194a1.756,1.756,0,0,1,.645,1.749,3.212,3.212,0,0,0,.175,1.944,4.49,4.49,0,0,1,.336.507,1.677,1.677,0,0,1-.027,1.081,7.006,7.006,0,0,1-.558-.713.657.657,0,0,0-.8-.208c-.251.169-.247.476-.26.752s-.084.606-.344.7a.558.558,0,0,1-.583-.227c-.445-.544-.266-1.413-.708-1.961-.251-.311-.669-.463-.9-.789-.183-.257-.229-.583-.389-.859s-.531-.478-.777-.288a1.051,1.051,0,0,0-.208.278,1.2,1.2,0,0,1-1.419.428,2.375,2.375,0,0,0-.614-.266.76.76,0,0,0-.7.389,1.518,1.518,0,0,0-.194.812,1.872,1.872,0,0,1-.152,1.114,1.153,1.153,0,0,1-.311.3.968.968,0,0,1-1.077.111.809.809,0,0,1-.241-.754,6.088,6.088,0,0,1,.229-.8c.171-.6-.052-1.281.134-1.848A5.9,5.9,0,0,1,415.3,164.3Z" transform="translate(-345.999 -154.294)"/><path class="d" d="M432.76,205.938a.707.707,0,0,0,.043.422.67.67,0,0,0,.229.22,4.715,4.715,0,0,0,2.165.7.658.658,0,0,1,.3.078.526.526,0,0,1,.126.6,1.568,1.568,0,0,0-.138.641c.056.406.538.583.945.643a2.2,2.2,0,0,0,1.644-.321,2.54,2.54,0,0,0,.678-1.017c1.116-2.564,1.506-5.4,2.636-7.953a1.687,1.687,0,0,0,.169-.533.525.525,0,0,0-.21-.49c-.21-.13-.536-.056-.678-.26-.07-.1-.062-.243-.124-.352-.13-.231-.472-.194-.706-.328-.183-.1-.309-.3-.513-.336a.645.645,0,0,0-.531.229,6.835,6.835,0,0,0-1.38,2.323,27.222,27.222,0,0,1-1.975,3.662,2.135,2.135,0,0,0-.618-1.211c-.348-.07-.793.54-.982.768A4.89,4.89,0,0,0,432.76,205.938Z" transform="translate(-360.796 -182.217)"/><path class="i" d="M460.167,200.32a.931.931,0,0,0-.721.362,2.057,2.057,0,0,0-.3.972A8.445,8.445,0,0,1,458,204.728" transform="translate(-380.984 -184.365)"/><path class="i" d="M465.452,204.31a1.11,1.11,0,0,0-.943.566,3.178,3.178,0,0,0-.237.96,5.269,5.269,0,0,1-.943,2.019" transform="translate(-385.216 -187.579)"/><path class="j" d="M261.2,362.034V359.62a6.7,6.7,0,0,0-6.7-6.7H159.162a6.7,6.7,0,0,0-6.7,6.7v4.451Z" transform="translate(-139.243 -305.818)"/><path class="k" d="M323.363,276.675s-.272,16.882,2.721,22.437,4.276,29.72,4.276,29.72,31.378,3.246,53.244-3.887S452,314.895,452,314.895l-7.841-52.845s-38.735-2.484-60.77,8.025S323.363,276.675,323.363,276.675Z" transform="translate(-264.656 -232.176)"/><path class="i" d="M323.363,276.675s-.272,16.882,2.721,22.437,4.276,29.72,4.276,29.72,31.378,3.246,53.244-3.887S452,314.895,452,314.895l-7.841-52.845s-38.735-2.484-60.77,8.025S323.363,276.675,323.363,276.675Z" transform="translate(-264.656 -232.176)"/><path class="k" d="M358.32,298.309s-.982,13.93,1.481,18.381,2.577,24.321,2.577,24.321,28.239,1.31,48.326-5.528S473,324.21,473,324.21l-4.8-43.217s-34.927-.36-55.312,9.265S358.32,298.309,358.32,298.309Z" transform="translate(-297.614 -247.621)"/><ellipse class="i" cx="7.331" cy="15.724" rx="7.331" ry="15.724" transform="translate(102.866 49.749) rotate(-7.1)"/><path class="c" d="M377.678,130.66s-37.631,9.524-55.376,26.288-55.1,24.7-55.1,24.7,4.921,16.15,9.473,20.519,13.186,26.978,13.186,26.978,30.859-6.542,49.479-20.047,62.016-30.56,62.016-30.56Z" transform="translate(-225.443 -128.244)"/><path class="k" d="M264.29,169.217s5.369,16.152,10.333,20.521,14.391,26.976,14.391,26.976,33.685-6.54,54.01-20.045,67.685-30.554,67.685-30.554L384.869,118.23s-41.07,9.524-60.438,26.288S264.29,169.217,264.29,169.217Z" transform="translate(-229.338 -118.23)"/><path class="i" d="M264.29,169.217s5.369,16.152,10.333,20.521,14.391,26.976,14.391,26.976,33.685-6.54,54.01-20.045,67.685-30.554,67.685-30.554L384.869,118.23s-41.07,9.524-60.438,26.288S264.29,169.217,264.29,169.217Z" transform="translate(-229.338 -118.23)"/><path class="k" d="M308,191.7s3.691,13.561,7.79,17.04S326.741,231.1,326.741,231.1,356.876,223.675,375.68,211s61.689-29.829,61.689-29.829L417.676,141.5s-36.845,10.373-55.017,25.79S308,191.7,308,191.7Z" transform="translate(-264.552 -136.977)"/><ellipse class="i" cx="7.331" cy="15.724" rx="7.331" ry="15.724" transform="translate(89.977 41.901) rotate(-24.97)"/><path class="i" d="M263.794,383.98v67.055a5.8,5.8,0,0,1-5.8,5.8H158.286a5.8,5.8,0,0,1-5.8-5.8V377.22c2.857,1.061,2.857,1.061,5.8.972h99.708A5.8,5.8,0,0,1,263.794,383.98Z" transform="translate(-139.267 -322.945)"/><path class="b" d="M263.794,388.362v67.055a5.8,5.8,0,0,1-5.8,5.8H158.286a5.8,5.8,0,0,1-5.8-5.8V381.6c2.857,1.059,2.857,1.059,5.8.972h99.708A5.8,5.8,0,0,1,263.794,388.362Z" transform="translate(-139.267 -326.474)"/><path class="i" d="M593.04,543.936V565.38h-20.8a10.723,10.723,0,1,1,0-21.445Z" transform="translate(-462.202 -458.244)"/><path class="j" d="M594.5,541v21.448H573.7a10.723,10.723,0,1,1,0-21.445Z" transform="translate(-463.358 -455.9)"/><circle class="i" cx="4.181" cy="4.181" r="4.181" transform="translate(106.851 92.13)"/><circle class="d" cx="4.181" cy="4.181" r="4.181" transform="translate(107.153 91.545)"/><path class="l" d="M854.447,527.612c.165,1.79-1.189,3.528-.795,5.281.085.375.247.729.305,1.108a4.259,4.259,0,0,1-1.05,2.9l-5.092,7.471a4.636,4.636,0,0,1-.727.9c-.972.867-2.433.777-3.712,1.036a6.344,6.344,0,0,0-2.488,1.1.159.159,0,0,0-.023.218,2.138,2.138,0,0,0,1.85.869c.134.177,0,.435-.194.562-.274.194-.649.241-.7.7a.765.765,0,0,0,.093.467,1.448,1.448,0,0,0,.89.62c1.763.538,3.668-.408,4.987-1.7s2.266-2.915,3.561-4.227c.717-.725,1.532-1.347,2.27-2.051a25.992,25.992,0,0,0,3.724-4.818,5.376,5.376,0,0,0,.807-1.64c.14-.6.074-1.2.231-1.777a6.545,6.545,0,0,1,1.221-2,6.6,6.6,0,0,0,1.388-4.3,4.12,4.12,0,0,0-2.515-3.567,2.235,2.235,0,0,0-1.409-.086,3.348,3.348,0,0,0-1.434,1.141l-.972,1.118a2.621,2.621,0,0,0-.564.855.9.9,0,0,0,.194.95" transform="translate(-684.01 -442.679)"/><path class="m" d="M854.447,527.612c.165,1.79-1.189,3.528-.795,5.281.085.375.247.729.305,1.108a4.259,4.259,0,0,1-1.05,2.9l-5.092,7.471a4.636,4.636,0,0,1-.727.9c-.972.867-2.433.777-3.712,1.036a6.344,6.344,0,0,0-2.488,1.1.159.159,0,0,0-.023.218,2.138,2.138,0,0,0,1.85.869c.134.177,0,.435-.194.562-.274.194-.649.241-.7.7a.765.765,0,0,0,.093.467,1.448,1.448,0,0,0,.89.62c1.763.538,3.668-.408,4.987-1.7s2.266-2.915,3.561-4.227c.717-.725,1.532-1.347,2.27-2.051a25.992,25.992,0,0,0,3.724-4.818,5.376,5.376,0,0,0,.807-1.64c.14-.6.074-1.2.231-1.777a6.545,6.545,0,0,1,1.221-2,6.6,6.6,0,0,0,1.388-4.3,4.12,4.12,0,0,0-2.515-3.567,2.235,2.235,0,0,0-1.409-.086,3.348,3.348,0,0,0-1.434,1.141l-.972,1.118a2.621,2.621,0,0,0-.564.855.9.9,0,0,0,.194.95" transform="translate(-684.01 -442.679)"/><path class="n" d="M912.281,768.569a5.894,5.894,0,0,1-3.79.562c-.208-.025-.455-.041-.583.121-.194.233.035.583.272.764a5.607,5.607,0,0,0,2.6,1.071,17.133,17.133,0,0,0,2.546.169,43.049,43.049,0,0,0,6.96-.255.986.986,0,0,0,.389-.113.711.711,0,0,0,.288-.437,1.735,1.735,0,0,0-.6-1.656,5.073,5.073,0,0,0-1.623-.871l-2.021-.787a5.193,5.193,0,0,0-1.749-.636C914,766.571,913.083,768.1,912.281,768.569Z" transform="translate(-737.512 -636.562)"/><path class="m" d="M912.281,768.569a5.894,5.894,0,0,1-3.79.562c-.208-.025-.455-.041-.583.121-.194.233.035.583.272.764a5.607,5.607,0,0,0,2.6,1.071,17.133,17.133,0,0,0,2.546.169,43.049,43.049,0,0,0,6.96-.255.986.986,0,0,0,.389-.113.711.711,0,0,0,.288-.437,1.735,1.735,0,0,0-.6-1.656,5.073,5.073,0,0,0-1.623-.871l-2.021-.787a5.193,5.193,0,0,0-1.749-.636C914,766.571,913.083,768.1,912.281,768.569Z" transform="translate(-737.512 -636.562)"/><path class="f" d="M931.635,591.544c-.842,1.12-1.712,2.412-1.5,3.8a8.46,8.46,0,0,0,.838,2.1,14.783,14.783,0,0,1,.847,2.947c.315,1.466.632,2.935.824,4.424.22,1.681-.812,6.546-.908,8.239a1.742,1.742,0,0,1-.356,1.143c-.111.117-.259.21-.309.362a.618.618,0,0,0,.068.428,4.7,4.7,0,0,0,2.527,2.321,19.988,19.988,0,0,0,4.873,1.281.972.972,0,0,0,.459-.06.892.892,0,0,0,.354-.406c.845-1.617.033-7.366.045-9.191.012-1.522.371-3.034.305-4.554-.054-1.221-.389-2.414-.5-3.631a21.429,21.429,0,0,1,.538-5.969c.28-1.512.562-3.024.921-4.517a8.673,8.673,0,0,1,.972-2.622c.389-.628.935-1.153,1.388-1.749a7.9,7.9,0,0,0,1.555-5.78,15.144,15.144,0,0,0-3.17.844,9.877,9.877,0,0,0-2.826,1.817,23.731,23.731,0,0,0-1.78,2.2q-1.242,1.514-2.453,3.05Q932.961,589.767,931.635,591.544Z" transform="translate(-753.47 -486.371)"/><path class="m" d="M931.635,591.234c-.842,1.12-1.712,2.414-1.5,3.8a8.443,8.443,0,0,0,.838,2.1,14.766,14.766,0,0,1,.847,2.945c.315,1.467.632,2.937.824,4.424.22,1.683-.812,6.546-.908,8.239a1.747,1.747,0,0,1-.356,1.145c-.111.115-.259.208-.309.36a.617.617,0,0,0,.068.428A4.761,4.761,0,0,0,933.662,617a18.777,18.777,0,0,0,4.873.911.971.971,0,0,0,.459-.06.879.879,0,0,0,.354-.4c.845-1.617.033-7,.045-8.824.012-1.524.371-3.034.305-4.556-.054-1.221-.389-2.414-.5-3.629a21.436,21.436,0,0,1,.538-5.971c.28-1.51.562-3.022.921-4.517a8.673,8.673,0,0,1,.972-2.622c.389-.628.935-1.153,1.388-1.749a7.891,7.891,0,0,0,1.555-5.78,15.143,15.143,0,0,0-3.17.844,9.92,9.92,0,0,0-2.826,1.819,23.458,23.458,0,0,0-1.78,2.2q-1.242,1.514-2.453,3.052Q932.961,589.455,931.635,591.234Z" transform="translate(-753.47 -486.129)"/><circle class="l" cx="4.717" cy="4.717" r="4.717" transform="translate(161.388 69.303)"/><path class="l" d="M893.039,483.209a6.109,6.109,0,0,0,3.916,2.733l-.356,1.293c-.614,2.22-1.3,4.568-3.018,6.107a2.839,2.839,0,0,0-.478-2.208,8.321,8.321,0,0,0-1.6-1.673l-2.715-2.352a.818.818,0,0,1-.194-.229.69.69,0,0,1,0-.517,6.3,6.3,0,0,1,2.138-2.476,7.4,7.4,0,0,0,1.075-1.252C892.347,481.86,892.683,482.637,893.039,483.209Z" transform="translate(-722.454 -409.24)"/><path class="f" d="M852.976,447.871l-.107-.886c.744.194,1.452-.439,1.928-1.094s.917-1.427,1.642-1.7c.88-.33,1.813.194,2.655.637a8.393,8.393,0,0,0,3.046.991,2.006,2.006,0,0,1,.5.082,1.752,1.752,0,0,1,.888,1.506,5.892,5.892,0,0,0,.328,1.843c.194.422.556.735.777,1.151.583,1.116.019,2.641.628,3.736l-1.512-1.386c-.138-.126-.332-.258-.486-.152-.12.086-.13.27-.179.418a.794.794,0,0,1-1.077.389,3.086,3.086,0,0,1-.972-.88,5.9,5.9,0,0,0-2.4-1.819,3.079,3.079,0,0,0-2.527.167c-.706.4-1.223,1.328-2.087,1.361-1.186.045-1.679-2.163-2.227-3.036a1.069,1.069,0,0,0,.311-1.337C852.191,447.826,852.958,447.735,852.976,447.871Z" transform="translate(-693.054 -378.705)"/><path class="g" d="M551.318,317.037a9.182,9.182,0,0,0-1.048,1.1,2.2,2.2,0,0,0-.482,1.413.723.723,0,0,0,.136.414.35.35,0,0,0,.389.119.523.523,0,0,0,.194-.171,9.381,9.381,0,0,1,.653-.707c.084-.084.194-.171.307-.14a.329.329,0,0,1,.132.087.894.894,0,0,1,.274.428,1.007,1.007,0,0,1-.3.828,2.121,2.121,0,0,0-.507.75.332.332,0,0,0,0,.241.362.362,0,0,0,.152.128,2.169,2.169,0,0,0,1.835.12c.389-.157.735-.428,1.135-.568a2.625,2.625,0,0,0,.5-.194,1.041,1.041,0,0,0,.445-.667,2.744,2.744,0,0,0,.029-.818,9.409,9.409,0,0,0-.669-3.077.389.389,0,0,0-.113-.163.36.36,0,0,0-.194-.052,4.622,4.622,0,0,0-1.794-.122,1.267,1.267,0,0,0-.424.377C551.88,316.462,551.318,316.907,551.318,317.037Z" transform="translate(-453.759 -276.295)"/><path class="f" d="M527.924,244.118c0-.474-.583-1.619.344-1.695,0-.507-.717-.822-.583-1.361.043-.179.194-.325.212-.507.058-.519-.878-.8-.723-1.3.058-.194.264-.307.309-.5.1-.449-.7-.649-.713-1.11,0-.155.087-.3.08-.457,0-.194-.169-.342-.262-.511-.243-.433-.124-1.1-.568-1.328.294.025.389-.41.268-.676s-.367-.5-.369-.793a1.2,1.2,0,0,0,0-.323c-.082-.284-.546-.307-.624-.583a2.481,2.481,0,0,1-.01-.319c-.031-.22-.257-.36-.468-.422a1.91,1.91,0,0,1-.626-.224c-.136-.1-.294-.274-.439-.194-.054.033-.082.1-.122.142-.175.2-.509.115-.729-.035a2.994,2.994,0,0,1-1.11-2c-.138-.772-.134-1.569-.307-2.332a4.974,4.974,0,0,0-.21-.7,3.683,3.683,0,0,1-.327-.7c-.035-.447.89-.142,1.242-.1a5.53,5.53,0,0,1,1.009.194,10.775,10.775,0,0,1,1.032.453c1.4.62,3.1.7,4.225,1.738a3.542,3.542,0,0,0,1.166.947,5.274,5.274,0,0,1,.653.169c.534.251.618.96.91,1.473a2.892,2.892,0,0,1,.239.428,1.649,1.649,0,0,1,.078.544l.041,1.347a49.656,49.656,0,0,1-.109,6.762,5.544,5.544,0,0,0,.025,2.214c.058.194.14.377.194.573a3.492,3.492,0,0,1,.074.7l.031.873a.272.272,0,0,1-.043.194.28.28,0,0,1-.235.056c-1.215-.109-2.443-.793-3.59-.379" transform="translate(-430.721 -204.287)"/><ellipse class="b" cx="14.375" cy="2.078" rx="14.375" ry="2.078" transform="translate(142.179 105.146)"/><path class="o" d="M718.614,271.674c-.243-1.116-.394-2.1-.394-2.1a4.593,4.593,0,0,0-.452-2.126v-.3h0V264.9a7.9,7.9,0,0,1,.528-1.176c.373-.705,0-3.291,0-3.291s-1.395-3.645-1.057-5.958-2.864-10.269-2.864-10.269a10.833,10.833,0,0,1,.3-2.273,1.853,1.853,0,0,0,.041-.477v-.04a18.642,18.642,0,0,0-1.172-4.383l.151-5.447a17.154,17.154,0,0,0-.452-7.525c-.409-1.505-.67-2.71-.836-3.639-.019-.1-.037-.2-.052-.3,2.407-.4,4.246-.721,4.246-.721s-1.4-6.271-2.339-7.369-1.7-4.547-1.7-4.547-.491-4.427.3-5.722a9.113,9.113,0,0,0,.906-3.527s1.809-1.4,2.037-2.038a11.042,11.042,0,0,0,.6-2.782c0-.743-.226-1.4-.151-1.8s-.528-1.882-.226-2.587a2.018,2.018,0,0,0,.12-.679.092.092,0,0,0,0-.02h0a10.2,10.2,0,0,0-.159-1.84,4.767,4.767,0,0,0-1.792-1.028l-.039-.168-.1-.441a1.965,1.965,0,0,0-.177-.112v-.16l-.017-.637.284-1.431c.56-2.489-2.537-2.86-2.537-2.86a1.676,1.676,0,0,0-.878-.826c-.622-.234-.1,3.744.187,4.008a15.865,15.865,0,0,1,1.221,2.052h0l.052.1a1.361,1.361,0,0,0-.142.16l.118.864.019.132a3.652,3.652,0,0,0-.495.9,2.03,2.03,0,0,1,.454,1.4,4.8,4.8,0,0,0,.187,1.724c-.034-.042-.431-.5-.829-.391s-1.509.471-1.509.471-.829.156-.747.353-.56,1.058-.56,1.058l-2.229-2.269c-.022-.068-.047-.136-.065-.2a5.89,5.89,0,0,1-.187-1,4.85,4.85,0,0,0,.713-.242,1.531,1.531,0,0,0,.616-.425,2.683,2.683,0,0,0,.36-1.032,15.77,15.77,0,0,1,.827-1.98,6.871,6.871,0,0,0,.42-3.563,2.439,2.439,0,0,0-.342-1.042c-.364-.537-1.025-.756-1.5-1.184s-.79-1.084-1.35-1.4a2.508,2.508,0,0,0-1.691-.156,8.729,8.729,0,0,0-3.161,1.235,1.572,1.572,0,0,1-1.057.373,1.391,1.391,0,0,1-.762-.6.214.214,0,0,1,.009-.032.2.2,0,0,1-.024-.032,4.5,4.5,0,0,0-.347,1.792,2.361,2.361,0,0,0,.011.287v.182h0a.489.489,0,0,1-.017.126.914.914,0,0,1-.209.323,2.157,2.157,0,0,0-.187.267.347.347,0,0,1,.03-.1,1.5,1.5,0,0,0-.231.756.809.809,0,0,0,.168.541,2.466,2.466,0,0,0,.364.313,4.881,4.881,0,0,0-.067.8,4.708,4.708,0,0,0,2.1,3.95c.026.066.05.134.075.2a6.082,6.082,0,0,1,.405,2.605,1.3,1.3,0,0,1-.026.188c-.009.062-.056.066-.08.1h0s-3.684.04-4.55-.8-2.188,2.058-2.188,2.058-1.32.275-1.585,0-1.809-.038-1.809-.038a3.2,3.2,0,0,0-2.3-.9,6.64,6.64,0,0,0-1.68-1h0l-.041-.016h0a1.762,1.762,0,0,0-.831-.112,17.364,17.364,0,0,1-2.339-2.469c-.528-.866-3.043-4.062-3.054-4.076v-.154l-.028-.465a1.452,1.452,0,0,1-.226.02c-.013-.046-.032-.1-.05-.162a9.31,9.31,0,0,0-.534-1.317s0-.587.159-.736a10.87,10.87,0,0,0-.065-2.3s-1.632-4.094-3.094-1.038c0,0-2.763,1.978-.444,4.283,0,0,.934.481,1.057.862.086.247.4.938.611,1.4l.1.2-.026.024.034.385.015.148c-.437.267-.734.531-.661.73a4.639,4.639,0,0,1,.263,1.058s3.208,4.313,3.622,6.155c0,0,8.6,5.487,11.43,5.878l-.5,2.736q-.109,1.113-.112,2.235c.037.587-.34,3.253-.34,3.253s-.491,3.92-.906,4.469-.34,2.9-.34,2.9a21.132,21.132,0,0,1-.56,3.331,9.123,9.123,0,0,0-.114,3.333s-1.432,3.527,2,1.136c0,0,1.68-.112,3.626-.184v.2c0,.269,0,.559-.013.864-.026,2.02-.037,4.81.049,6.91.151,3.724,1.208,11.093,1.208,11.093v3.71a5.4,5.4,0,0,0-.1,1.058,7.277,7.277,0,0,0,.933,3.706l.265,2.469a10.193,10.193,0,0,1,.631,2.605,1.459,1.459,0,0,1-.026.234,1.687,1.687,0,0,0-.03.379,22.753,22.753,0,0,0,.594,3.808s.037,2.7.414,2.862c.323.134-.431,1.557-.655,1.966a.592.592,0,0,1-.013-.076l-.047.08a2.045,2.045,0,0,0-.118.685,1.009,1.009,0,0,0,.418.95c.717.471,1.1.862.493,1.018a5.974,5.974,0,0,0-.665.15.323.323,0,0,0-.032-.09.435.435,0,0,0-.248.473,2.119,2.119,0,0,0,.222.91,10.142,10.142,0,0,0,1.021,2l.289-.034a1.551,1.551,0,0,1-.168.335,1.233,1.233,0,0,1-.426.4,1.259,1.259,0,0,1-.517.19,1.421,1.421,0,0,0-1.068.557,1.251,1.251,0,0,0,.131,1.86l2.7,1s4.641.647,4.395-.471-.4-2.1-.4-2.1a4.7,4.7,0,0,0-.373-1.982,2.629,2.629,0,0,0-.164-.293l.164-.018s.34-2.471.792-2.94c.1-.108.129-.2.1-.257.047-.134-.073-.212-.224-.259l-.034.1a2.055,2.055,0,0,0-.45-.054s-.151-1.293.34-1.764a.526.526,0,0,0,.1-.385,2.211,2.211,0,0,0-.052-.527.268.268,0,0,1-.017.032,19.856,19.856,0,0,0-1.083-3.04,3.965,3.965,0,0,1,.265-1.645c.3-.471-.039-6.389-.039-6.389a20.743,20.743,0,0,0-.226-4.193,5,5,0,0,1,.414-2.9v-.1l-.043-.451a.127.127,0,0,0,0,.028c-.077-.758-.22-2.13-.327-2.764-.151-.9.039-5.211.039-5.211l.678-1.844,1.208,3.177,1.283,4.233a3.761,3.761,0,0,1,.65,1.8v.132a2.5,2.5,0,0,0-.015.283,2.656,2.656,0,0,0,.39,1.509,6.843,6.843,0,0,0,.868,2.507,2.357,2.357,0,0,1,.528,1.489,27.5,27.5,0,0,0,.934,3.407,5.411,5.411,0,0,1,.265,1.97h0v.1s.09,1.038.086,1.908v.311a.086.086,0,0,0,0-.022,3.225,3.225,0,0,1-.078.705l-.011.04a.548.548,0,0,1,.013-.146,7.875,7.875,0,0,0-.187,1.8,4.934,4.934,0,0,0,.719,3.006c1.019,1.255,1.66,1.1,1.66,1.1s-.489,1.567-1.094,1.882a.284.284,0,0,0-.064.044.717.717,0,0,0-.015-.092.8.8,0,0,0-.187.585,4.407,4.407,0,0,0,.747,2.323,1.2,1.2,0,0,0,.51.321.808.808,0,0,1-.1.062,1.974,1.974,0,0,1-.207.106,1.029,1.029,0,0,1-.308.086,1.4,1.4,0,0,0-1.068.557,1.249,1.249,0,0,0,.131,1.858l2.7,1S718.857,272.79,718.614,271.674Z" transform="translate(-551.14 -164.599)"/><path class="p" d="M797.478,641.389l-2.721-.972a1.181,1.181,0,0,1-.132-1.8,1.454,1.454,0,0,1,1.077-.54,1.29,1.29,0,0,0,.519-.185,1.243,1.243,0,0,0,.432-.389,2.008,2.008,0,0,0,.309-1.051s2.985-.875,3.8,0a2.209,2.209,0,0,1,.362.531,4.44,4.44,0,0,1,.389,1.922s.152.949.4,2.033S797.478,641.389,797.478,641.389Z" transform="translate(-647.686 -532.277)"/><path class="p" d="M865.918,634.473,863.2,633.5a1.179,1.179,0,0,1-.132-1.8,1.436,1.436,0,0,1,1.075-.54,1.01,1.01,0,0,0,.311-.084,2.049,2.049,0,0,0,.21-.1,1.721,1.721,0,0,0,.741-1.444s2.984-.875,3.8,0a2.158,2.158,0,0,1,.286.389,4.319,4.319,0,0,1,.455,2.064s.152.95.389,2.033S865.918,634.473,865.918,634.473Z" transform="translate(-701.993 -526.744)"/><path class="i" d="M810.669,636.437a2.209,2.209,0,0,1,.362.531h0l-4.47.519a2.008,2.008,0,0,0,.309-1.052S809.853,635.562,810.669,636.437Z" transform="translate(-657.581 -532.365)"/><path class="i" d="M876.738,629.937v.838c-.7,1.145-4.06.894-5.038.321a2.043,2.043,0,0,0,.21-.1,1.721,1.721,0,0,0,.741-1.444s2.983-.875,3.8,0A2.155,2.155,0,0,1,876.738,629.937Z" transform="translate(-709.255 -526.834)"/><path class="f" d="M806.173,430.387a7.616,7.616,0,0,0-.531,1.141v3c-.762,1.254-4.713.836-5.248.152s-1.092-2.465-.492-2.774,1.1-1.825,1.1-1.825-.647.152-1.674-1.065-.721-3.914-.531-4.56a13.469,13.469,0,0,0,0-2.812,5.652,5.652,0,0,0-.264-2.016,25.084,25.084,0,0,1-.95-3.3,2.237,2.237,0,0,0-.533-1.444,6.5,6.5,0,0,1-.875-2.433,2.493,2.493,0,0,1-.379-1.635,3.32,3.32,0,0,0-.647-1.977l-1.293-4.107-1.217-3.079-.684,1.786s-.194,4.181-.037,5.053.389,3.193.389,3.193a4.687,4.687,0,0,0-.418,2.812,19.2,19.2,0,0,1,.218,4.07s.342,5.738.037,6.194a3.71,3.71,0,0,0-.266,1.6s1.555,3.343,1.065,3.8-.342,1.71-.342,1.71,1.063,0,.608.457-.8,2.851-.8,2.851l-4.6.538a9.557,9.557,0,0,1-1.028-1.944c-.608-1.413.113-1.254.725-1.407s.225-.531-.5-.987-.3-1.483-.3-1.483,1.1-1.862.721-2.014-.418-2.776-.418-2.776a16.884,16.884,0,0,1-.57-3.953,7.562,7.562,0,0,0-.608-2.849l-.266-2.395a6.589,6.589,0,0,1-.836-4.525v-3.693s-1.065-7.145-1.217-10.756c-.1-2.313-.07-5.469-.039-7.438.019-1.1.039-1.837.039-1.837l16.42-1.71a13.711,13.711,0,0,0,.3,2.439c.169.9.432,2.07.844,3.53a16.038,16.038,0,0,1,.457,7.3l-.154,5.285s1.444,3.534,1.141,4.75a10.133,10.133,0,0,0-.307,2.208s3.23,7.716,2.888,9.959,1.063,5.778,1.063,5.778S806.554,429.7,806.173,430.387Z" transform="translate(-638.391 -331.421)"/><path class="m" d="M852.05,509.937l5-.667S854.217,512.16,852.05,509.937Z" transform="translate(-693.661 -430.971)"/><path class="i" d="M870.272,484.14s.171,1.769-.912,2.433C869.36,486.573,871.3,486.27,870.272,484.14Z" transform="translate(-707.575 -410.858)"/><path class="i" d="M847.977,455.2s-4.179,3.44-5.7,3.155S847.977,455.2,847.977,455.2Z" transform="translate(-685.697 -387.702)"/><path class="i" d="M806.611,521s-3.174.721-3.269,2S806.611,521,806.611,521Z" transform="translate(-655.076 -440.338)"/><path class="m" d="M809.508,602.56s-4.484.836-3.211,1.405a21.765,21.765,0,0,0,3.364,1.026S811.109,605.067,809.508,602.56Z" transform="translate(-657.203 -505.561)"/><g class="q" transform="translate(145.061 56.145)"><path d="M800.189,611.759a.884.884,0,0,1-.41-.649l-.047.08s-.418,1.026.305,1.481c.082.052.161.1.233.156.134-.025.278-.045.416-.08C801.3,612.595,800.912,612.216,800.189,611.759Z" transform="translate(-796.47 -568.939)"/><path d="M831.43,609.657c.124-.113.12-.4.045-.777a2.185,2.185,0,0,0-.255,1.1A.948.948,0,0,1,831.43,609.657Z" transform="translate(-821.939 -567.142)"/><path d="M827.493,515.59a5.185,5.185,0,0,0-.3,1.4,5.63,5.63,0,0,1,.348-.96Z" transform="translate(-818.692 -491.985)"/><path d="M881.244,503.606a1.784,1.784,0,0,0,.041-.416c-.056.284-.1.546-.124.777C881.185,503.849,881.213,503.736,881.244,503.606Z" transform="translate(-862.179 -481.995)"/><path d="M827.757,581.615a2.436,2.436,0,0,0,.113-.845,2.872,2.872,0,0,0-.22,1.067A1.025,1.025,0,0,1,827.757,581.615Z" transform="translate(-819.063 -544.496)"/><path d="M805.922,622a15.089,15.089,0,0,0-.523,2.332l-4.6.531a9.56,9.56,0,0,1-1.028-1.944,3.533,3.533,0,0,1-.13-.334c-.276.126-.389.412-.023,1.246a9.716,9.716,0,0,0,1.03,1.944l4.6-.533s.342-2.395.8-2.851C806.277,622.171,806.134,622.056,805.922,622Z" transform="translate(-796.291 -577.712)"/><path d="M787.015,431.6s.037,2.622.418,2.774h0c.194-.433.321-.845.15-.914-.389-.152-.418-2.776-.418-2.776a16.887,16.887,0,0,1-.57-3.953,7.562,7.562,0,0,0-.608-2.849l-.266-2.395a6.589,6.589,0,0,1-.836-4.525v-3.693s-1.065-7.145-1.217-10.756c-.1-2.313-.07-5.469-.039-7.438,0-.356.012-.671.017-.937l-.13.014s-.021.731-.039,1.837c-.031,1.969-.06,5.125.039,7.436.152,3.611,1.215,10.758,1.215,10.758v3.693a6.593,6.593,0,0,0,.838,4.523l.264,2.395a7.6,7.6,0,0,1,.608,2.851A16.918,16.918,0,0,0,787.015,431.6Z" transform="translate(-783.448 -394.14)"/><path d="M867.655,623.976a4.445,4.445,0,0,1-.729-1.806c-.468.424.07,2.068.583,2.721.531.684,4.484,1.1,5.248-.154v-.723C871.721,625.031,868.156,624.623,867.655,623.976Z" transform="translate(-850.566 -577.849)"/><path d="M898.933,609.255a7.684,7.684,0,0,0-.533,1.141v.538a7.971,7.971,0,0,1,.389-.762,2.334,2.334,0,0,0,.167-.943S898.938,609.247,898.933,609.255Z" transform="translate(-876.068 -567.424)"/><path d="M863.6,589.167a7.519,7.519,0,0,0,.375-.9s-.647.152-1.674-1.065c-.746-.884-.789-2.556-.682-3.648-.194.647-.5,3.345.531,4.562A2.707,2.707,0,0,0,863.6,589.167Z" transform="translate(-846.272 -546.736)"/><path d="M834.593,482.418a20.227,20.227,0,0,1,.076,2.253,3.092,3.092,0,0,1,.078-.352,13.194,13.194,0,0,0,0-2.812,5.618,5.618,0,0,0-.266-2.016,24.537,24.537,0,0,1-.941-3.308,2.237,2.237,0,0,0-.533-1.444,6.5,6.5,0,0,1-.875-2.433,2.5,2.5,0,0,1-.389-1.635,3.309,3.309,0,0,0-.645-1.977l-1.292-4.1-1.217-3.079L827.9,463.3s0,.225-.023.583l.556-1.452,1.217,3.073,1.292,4.1a3.309,3.309,0,0,1,.645,1.977,2.5,2.5,0,0,0,.389,1.635,6.48,6.48,0,0,0,.875,2.433,2.225,2.225,0,0,1,.531,1.444,25,25,0,0,0,.95,3.3A5.62,5.62,0,0,1,834.593,482.418Z" transform="translate(-819.25 -448.416)"/></g><path class="r" d="M863.356,194.44l-.286,1.388.017.618.012.455-1.586.163-.177-.328h0a14.731,14.731,0,0,0-1.23-1.99c-.293-.245-.816-4.1-.194-3.876a1.658,1.658,0,0,1,.882.8S863.918,192.026,863.356,194.44Z" transform="translate(-699.725 -176.743)"/><path class="i" d="M870.213,219.285l-1.586.163-.177-.328h0a1.4,1.4,0,0,1,1.749-.288Z" transform="translate(-706.827 -199.128)"/><path class="d" d="M870.235,220.634l-2.091.484-.045-.311-.119-.838a1.439,1.439,0,0,1,2.025-.276l.1.426Z" transform="translate(-706.432 -199.725)"/><path class="r" d="M684.393,182.407l-2.233,1.2-.194-.42c-.212-.445-.529-1.116-.616-1.361-.132-.369-1.063-.836-1.063-.836-2.332-2.233.447-4.154.447-4.154,1.473-2.964,3.11,1.007,3.11,1.007a10.065,10.065,0,0,1,.068,2.233c-.161.14-.161.713-.161.713a8.77,8.77,0,0,1,.538,1.277C684.356,182.277,684.393,182.407,684.393,182.407Z" transform="translate(-555.599 -164.559)"/><path class="i" d="M695.218,208.6l-2.233,1.2-.194-.42c.315-.264,1.432-1.166,1.8-1.129a2.69,2.69,0,0,0,.529.014C695.181,208.467,695.218,208.6,695.218,208.6Z" transform="translate(-566.357 -189.749)"/><path class="d" d="M695.695,209.907l-2.509,1.236-.051-.538-.035-.373s1.454-1.246,1.883-1.2a2.284,2.284,0,0,0,.655,0l.029.451Z" transform="translate(-566.597 -191.384)"/><path class="r" d="M809.628,221.566s-10.939,1.234-8.894.569a2.734,2.734,0,0,0,2.107-2.371,5.7,5.7,0,0,0-.406-2.527,11.016,11.016,0,0,0-.972-1.977s8.358-4.6,6.688-.418a6.74,6.74,0,0,0-.474,1.981,5.6,5.6,0,0,0,.216,2.006,5.973,5.973,0,0,0,1.736,2.737Z" transform="translate(-652.549 -194.65)"/><path class="i" d="M812.222,214.813a6.738,6.738,0,0,0-.474,1.981,3.845,3.845,0,0,1-2.76.618,4.938,4.938,0,0,1-2.476-.2,11.016,11.016,0,0,0-.972-1.977S813.9,210.632,812.222,214.813Z" transform="translate(-656.665 -194.626)"/><circle class="r" cx="4.523" cy="4.523" r="4.523" transform="translate(147.672 14.031)"/><path class="i" d="M809.628,243.386s-10.939,1.234-8.894.569a2.734,2.734,0,0,0,2.107-2.371,6.1,6.1,0,0,1,2.332-1.242,3.273,3.273,0,0,1,1.982-.033,2.817,2.817,0,0,1,.721.334A5.972,5.972,0,0,0,809.628,243.386Z" transform="translate(-652.549 -215.741)"/><path class="i" d="M870.726,223.371l-2.091.484-.045-.311a1.85,1.85,0,0,1,2.012-.688Z" transform="translate(-706.921 -202.461)"/><path class="i" d="M695.84,211.774l-2.509,1.236-.051-.538a18.3,18.3,0,0,1,2.527-1.121Z" transform="translate(-566.741 -192.251)"/><path class="d" d="M800.6,388.409c-4.3.676-10.414,1.539-11.384,1.248a28.845,28.845,0,0,0-5.616-.14c.02-1.1.039-1.837.039-1.837l16.659-1.71A13.533,13.533,0,0,0,800.6,388.409Z" transform="translate(-624.791 -359.736) rotate(2)"/><path class="n" d="M729.089,247.354s-13.949,2.395-15.446,1.944-9.184.037-9.184.037c-3.46,2.319-2.016-1.1-2.016-1.1a8.5,8.5,0,0,1,.115-3.23,19.728,19.728,0,0,0,.573-3.234s-.076-2.282.342-2.814.914-4.332.914-4.332.379-2.585.342-3.155.113-2.167.113-2.167l.5-2.661c-2.851-.379-11.518-5.7-11.518-5.7-.418-1.786-3.648-5.967-3.648-5.967a4.4,4.4,0,0,0-.266-1.026c-.227-.608,3.193-1.825,3.193-1.825s2.546,3.11,3.079,3.953a16.949,16.949,0,0,0,2.356,2.395,1.833,1.833,0,0,1,.836.109l.045.014h0a6.776,6.776,0,0,1,1.7.972,3.3,3.3,0,0,1,2.319.875s1.555-.229,1.825.037,1.6,0,1.6,0,1.329-2.812,2.2-2,4.585.777,4.585.777a5.368,5.368,0,0,1,2.449-1.361,3.287,3.287,0,0,1,1.983-.033,2.516,2.516,0,0,1,.777.389l2.256,2.2s.645-.838.57-1.026.76-.342.76-.342,1.1-.342,1.52-.457.8.338.836.379a4.542,4.542,0,0,1-.194-1.672,1.975,1.975,0,0,0-.457-1.361c1.329-3.269,4.332-.533,4.332-.533a6.27,6.27,0,0,1,.039,2.47c-.3.684.3,2.128.227,2.509s.154,1.026.154,1.749a10.688,10.688,0,0,1-.608,2.7c-.22.608-2.052,1.977-2.052,1.977a8.582,8.582,0,0,1-.913,3.421c-.8,1.254-.3,5.541-.3,5.541s.76,3.345,1.71,4.41S729.089,247.354,729.089,247.354Z" transform="translate(-563.46 -193.871)"/><path class="i" d="M779.051,255.093s-.418-1.254-.8-1.361a8.788,8.788,0,0,1-1.1-.494l.245-.468s1.427.389,1.656.811A3.224,3.224,0,0,1,779.051,255.093Z" transform="translate(-634.339 -225.826)"/><path class="i" d="M733.28,246.333c-.076.389-3.46.721-3.46.721l1.71-1.714h0l.043.016h0A6.775,6.775,0,0,1,733.28,246.333Z" transform="translate(-596.712 -219.887)"/><circle class="s" cx="0.303" cy="0.303" r="0.303" transform="translate(126.969 20.179)"/><circle class="s" cx="0.303" cy="0.303" r="0.303" transform="translate(127.381 20.787)"/><circle class="s" cx="0.303" cy="0.303" r="0.303" transform="translate(127.785 21.349)"/><circle class="s" cx="0.303" cy="0.303" r="0.303" transform="translate(128.207 21.955)"/><circle class="s" cx="0.247" cy="0.247" r="0.247" transform="translate(164.252 21.979)"/><circle class="s" cx="0.247" cy="0.247" r="0.247" transform="translate(164.293 22.54)"/><circle class="s" cx="0.247" cy="0.247" r="0.247" transform="translate(164.328 23.1)"/><path class="i" d="M787,317.719c-.037-.045,8.533,10.775,15.184,4.523C802.189,322.244,791.68,323.669,787,317.719Z" transform="translate(-641.579 -277.729)"/><path class="i" d="M761.7,346.66s5.127.14,5.664,1.615v1.536a.984.984,0,0,1-.954,0c-.517-.28-3.617-1.854-4.709-1.1Z" transform="translate(-621.927 -300.903)"/><path class="n" d="M762.19,346.66s4.9.134,5.417,1.541v1.462a.941.941,0,0,1-.914,0c-.494-.264-3.458-1.767-4.5-1.044Z" transform="translate(-622.326 -300.904)"/><path class="i" d="M776.1,289.38a16.5,16.5,0,0,0,1.988,3.411,13.385,13.385,0,0,0,3.11,3.007S776.185,290.084,776.1,289.38Z" transform="translate(-633.379 -255.071)"/><path class="i" d="M767.47,258.73s.855,3.693,3.059,4.947Z" transform="translate(-626.613 -230.575)"/><path class="i" d="M760.4,260.645c-.021-.068-.76,2.915,2.842,4.573C763.245,265.219,761.715,264.7,760.4,260.645Z" transform="translate(-620.949 -232.108)"/><path class="i" d="M875.9,247.9a25.664,25.664,0,0,1,2.276,1.71S876.987,247.822,875.9,247.9Z" transform="translate(-712.72 -221.933)"/><path class="p" d="M800.639,192.466a.713.713,0,0,0,.777.706,9.044,9.044,0,0,0,4.082-.389,1.555,1.555,0,0,0,.622-.412,2.558,2.558,0,0,0,.362-1,14.547,14.547,0,0,1,.834-1.92,6.434,6.434,0,0,0,.449-3.45,2.332,2.332,0,0,0-.346-1.009c-.365-.523-1.032-.735-1.516-1.151s-.795-1.051-1.361-1.361a2.612,2.612,0,0,0-1.706-.152,8.958,8.958,0,0,0-3.184,1.2,1.624,1.624,0,0,1-1.065.362,1.425,1.425,0,0,1-.777-.6,4.211,4.211,0,0,0-.325,1.973.847.847,0,0,1-.01.3.9.9,0,0,1-.212.313,1.151,1.151,0,0,0-.216,1.421c.146.173.371.268.513.445.255.317.169.777.163,1.182a.608.608,0,0,0,.1.4.583.583,0,0,0,.558.134,1.518,1.518,0,0,1,.595-.056,1,1,0,0,1,.517.389A7.3,7.3,0,0,1,800.639,192.466Z" transform="translate(-649.609 -169.813)"/><g class="t" transform="translate(147.199 13.431)"><path d="M806.281,207.69a1.555,1.555,0,0,1-.622.412,9.173,9.173,0,0,1-4.082.389.715.715,0,0,1-.779-.707,7.089,7.089,0,0,0-1.153-2.674,1,1,0,0,0-.517-.4,1.593,1.593,0,0,0-.595.056.583.583,0,0,1-.558-.132.608.608,0,0,1-.1-.4c0-.408.091-.865-.163-1.182-.142-.177-.367-.272-.513-.447a.886.886,0,0,1-.087-.906,1.036,1.036,0,0,0-.064,1.211c.146.173.371.268.513.445.255.319.169.777.163,1.182a.6.6,0,0,0,.1.4.583.583,0,0,0,.56.134,1.517,1.517,0,0,1,.595-.056,1,1,0,0,1,.517.389,7.1,7.1,0,0,1,1.153,2.676.972.972,0,0,0,.336.616.943.943,0,0,0,.428.093,9.017,9.017,0,0,0,4.082-.389,1.539,1.539,0,0,0,.622-.412,1.189,1.189,0,0,0,.194-.365A.1.1,0,0,1,806.281,207.69Z" transform="translate(-796.877 -198.907)"/><path d="M799.947,189.522a.666.666,0,0,0,.138-.229.848.848,0,0,0,0-.3,4.215,4.215,0,0,1,.212-1.637l-.025-.029a4.18,4.18,0,0,0-.325,1.971A1.406,1.406,0,0,1,799.947,189.522Z" transform="translate(-799.34 -187.33)"/></g><path class="i" d="M812.08,248.469s5.65.75,6.157-.1" transform="translate(-661.888 -223.076)"/><path class="i" d="M868.59,236.85s2.65,0,3.232,1.182" transform="translate(-706.843 -213.795)"/><path class="n" d="M941.784,765.728A4.981,4.981,0,0,1,938.392,767c-.319,0-.76.06-.762.379a.535.535,0,0,0,.093.26,3.119,3.119,0,0,0,1.749,1.374,6.182,6.182,0,0,0,2.117.134l2.07-.107c.389-.021.777-.041,1.166-.089s.812-.128,1.219-.194a15.941,15.941,0,0,1,3.015-.14.913.913,0,0,0,.742-.194c.159-.194.078-.566.018-.857-.124-.6,0-1.23-.115-1.833a3.219,3.219,0,0,0-2.113-2.251c-.933-.354-2.585-.76-3.467-.169A22.827,22.827,0,0,0,941.784,765.728Z" transform="translate(-759.537 -633.751)"/><path class="f" d="M952.352,576.853c.183.869,1.024,1.534,1.048,2.42a3.781,3.781,0,0,1-.851,1.916,12.774,12.774,0,0,0-.869,1.967,30.05,30.05,0,0,1-2.55,5.073,4.058,4.058,0,0,0-.919,2.511,3.758,3.758,0,0,0,.441,1.2l1.458,2.9a8.387,8.387,0,0,1,.745,1.829c.126.55.138,1.12.212,1.679.229,1.776,1.063,3.565.569,5.287-.043.148-.194.327-.313.224a5.539,5.539,0,0,1,.832,2.826,3.941,3.941,0,0,0,.014,1.59,1.74,1.74,0,0,1,.227.626,4,4,0,0,1-.083.43.947.947,0,0,0,.727.882c.391.13.816.12,1.211.239a7.429,7.429,0,0,1,1.944,1.333,4.138,4.138,0,0,0,2.239.729.563.563,0,0,0,.33-.066.534.534,0,0,0,.183-.4,2.223,2.223,0,0,0-.8-1.932.874.874,0,0,1-.3-.311.75.75,0,0,1-.027-.348,26.19,26.19,0,0,0-.086-4.781,7.265,7.265,0,0,1-.076-1.522,6.222,6.222,0,0,0,.122-1.265,6.728,6.728,0,0,0-.389-1.213,8.746,8.746,0,0,1-.194-2.257,19.787,19.787,0,0,0-.639-3.887,2.942,2.942,0,0,0-.6-1.4c-.3-.317-.793-.62-.678-1.042a1.234,1.234,0,0,1,.278-.414,1.662,1.662,0,0,0,.346-1.267.57.57,0,0,0,.655-.307,10.248,10.248,0,0,0,5.127-5.831,1.924,1.924,0,0,1,.229-.521,2.348,2.348,0,0,1,.939-.608,7.131,7.131,0,0,0,2.467-2.515,4.446,4.446,0,0,0,1.083-3.139l.06-2.284a1.237,1.237,0,0,0-.043-.447,1.12,1.12,0,0,0-.247-.361,4.391,4.391,0,0,0-2.422-1.306c-.622-.111-1.257-.089-1.887-.142a23.473,23.473,0,0,0-3.646-.389,5.836,5.836,0,0,0-4.531,3.17C953.366,576.32,953.032,576.841,952.352,576.853Z" transform="translate(-768.049 -480.3)"/><path class="d" d="M905.994,497.435a2.552,2.552,0,0,1-.14,1.04.726.726,0,0,1-.853.437c.1-.224-.163-.478-.408-.451a.764.764,0,0,0-.538.463,1.72,1.72,0,0,0-.155,1.055,4.284,4.284,0,0,1,.268,1.326c-.054.373-.328.744-.183,1.09a1.765,1.765,0,0,0,.352.422,1.19,1.19,0,0,1-.126,1.633l3.677.074a2.6,2.6,0,0,0,.457,1.788,11.273,11.273,0,0,0,8.4,5.487.731.731,0,0,0-.177,1.118,1.039,1.039,0,0,0,1.182.068,8.415,8.415,0,0,0,1.011-.758,3.109,3.109,0,0,1,2.078-.56c.461.045.908.194,1.37.218,1.361.072,2.527-.908,3.837-1.308a8.855,8.855,0,0,0,2.838-.89,1.131,1.131,0,0,0,.529-1.094,1.83,1.83,0,0,0-.389-.643,11.113,11.113,0,0,1-1.063-1.992,11.916,11.916,0,0,0-2.657-3.561,23.771,23.771,0,0,0-2.635-2,4.5,4.5,0,0,0-.711-.43,7.973,7.973,0,0,1-.972-.389,5.179,5.179,0,0,1-1.013-1.139,15.179,15.179,0,0,0-2.746-1.911,6.513,6.513,0,0,0-1.854-1.256c-.35-.107-.721-.115-1.071-.22-.795-.241-1.374-.947-2.154-1.232a8.644,8.644,0,0,0-1.944-.247,4.55,4.55,0,0,1-2.031-.774,2.41,2.41,0,0,0-.647-.377c-.985-.3-1.065,1.535-1.166,2.171A20.938,20.938,0,0,0,905.994,497.435Z" transform="translate(-732.341 -417.092)"/><path class="l" d="M863.259,537.584c.165,1.792-1.188,3.528-.793,5.283.084.373.245.729.3,1.108a4.249,4.249,0,0,1-1.05,2.9l-5.092,7.473a4.7,4.7,0,0,1-.727.9c-.972.865-2.433.777-3.712,1.034a6.416,6.416,0,0,0-2.488,1.1.161.161,0,0,0-.031.224,2.138,2.138,0,0,0,1.848.869c.134.175,0,.435-.185.562-.272.194-.649.239-.7.7a.777.777,0,0,0,.093.466,1.451,1.451,0,0,0,.89.618c1.763.54,3.668-.408,4.987-1.7s2.266-2.915,3.561-4.225c.717-.727,1.532-1.347,2.27-2.05a25.972,25.972,0,0,0,3.724-4.818,5.332,5.332,0,0,0,.807-1.64c.138-.6.074-1.2.231-1.778a6.535,6.535,0,0,1,1.221-1.994,6.6,6.6,0,0,0,1.388-4.3,4.121,4.121,0,0,0-2.515-3.567,2.261,2.261,0,0,0-1.409-.086,3.339,3.339,0,0,0-1.434,1.143l-.972,1.116a2.6,2.6,0,0,0-.546.857.9.9,0,0,0,.194.952" transform="translate(-690.989 -450.644)"/><path class="d" d="M919.352,511.91a2.785,2.785,0,0,0-1.878.583,2.673,2.673,0,0,0-.474.743,7.4,7.4,0,0,0-.939,2.954,13.527,13.527,0,0,0,.34,2.469,9.44,9.44,0,0,1-.212,2.074,14.393,14.393,0,0,0,2.678-1.03,8.971,8.971,0,0,1,1.569-.814,4.718,4.718,0,0,1,2.9.564c.041-.533-.36-1.462-.317-2a2.23,2.23,0,0,1,.119-.661,4.01,4.01,0,0,1,.4-.639,2.616,2.616,0,0,0-.235-3.065,4.269,4.269,0,0,0-2.737-1.166,11.833,11.833,0,0,0-1.911-.066" transform="translate(-744.316 -432.892)"/></svg>