<svg xmlns="http://www.w3.org/2000/svg" width="211.667" height="153.633" viewBox="0 0 211.667 153.633"><defs><style>.a{fill:#f2f2f2;}.b{fill:#2f2e41;}.c{fill:#ffb9b9;}.d{opacity:0.1;}.e,.g{opacity:0.2;}.f{fill:#3980be;}.g,.i{fill:none;stroke-miterlimit:10;stroke-width:2px;}.g{stroke:#000;}.h{fill:#d0cde1;}.i{stroke:#3f3d56;}.j{fill:#3f3d56;}.k{fill:#9f616a;}.l{fill:#57b894;}</style></defs><ellipse class="a" cx="71.5" cy="72" rx="71.5" ry="72" transform="translate(20)"/><ellipse class="a" cx="28.505" cy="4.561" rx="28.505" ry="4.561" transform="translate(0 144.511)"/><ellipse class="a" cx="44.105" cy="7.057" rx="44.105" ry="7.057" transform="translate(123.456 134.883)"/><path class="b" d="M854.4,435.945s.376,1.252-1.752,2.378-2.754,5.382-.25,6.634,3.254,2.879,2,4.005-3.5,4.131-.5,4.881,3.38,2.253,2.5,2.879,2-1.127,2-1.127.5,3,3.129,2.253,10.013-15.02,6.258-17.023S854.4,435.945,854.4,435.945Z" transform="translate(-696.643 -361.836)"/><path class="c" d="M872.764,491.159s1.3,4.544-.974,4.869a8.869,8.869,0,0,0-3.9,1.623l4.22,5.518h7.79l4.869-4.869s-6.492-4.869-5.193-7.79S872.764,491.159,872.764,491.159Z" transform="translate(-710.466 -404.963)"/><path class="d" d="M872.764,491.159s1.3,4.544-.974,4.869a8.869,8.869,0,0,0-3.9,1.623l4.22,5.518h7.79l4.869-4.869s-6.492-4.869-5.193-7.79S872.764,491.159,872.764,491.159Z" transform="translate(-710.466 -404.963)"/><path class="c" d="M852.787,720.695l7.466,2.6,5.193.325-.325-4.544L854.41,715.9Z" transform="translate(-688.541 -578.022)"/><path class="b" d="M953,768.807s0,4.544.649,4.544,9.413-.974,12.01,0,6.492-2.6,4.544-4.544-5.124-4.869-7.106-4.22-10.1,2.272-10.1,2.272Z" transform="translate(-779.182 -627.107)"/><path class="b" d="M819.949,764.974s-3.895,7.79-1.3,8.439a9,9,0,0,0,5.843-.649c.325-.325,4.869-1.623,5.518-.974s.649-2.6.649-2.6Z" transform="translate(-669.985 -627.494)"/><path class="b" d="M832.181,709.359s-6.167,8.439-1.623,10.711,26.292,2.272,27.915,0,2.272-9.413,0-10.062S832.181,709.359,832.181,709.359Z" transform="translate(-678.97 -582.59)"/><path class="e" d="M832.181,709.359s-6.167,8.439-1.623,10.711,26.292,2.272,27.915,0,2.272-9.413,0-10.062S832.181,709.359,832.181,709.359Z" transform="translate(-678.97 -582.59)"/><circle class="c" cx="7.465" cy="7.465" r="7.465" transform="translate(157.43 73.536)"/><path class="f" d="M845.987,526.96l6.492-1.3s1.623,5.193,6.816,4.22,6.492-4.22,6.492-4.22,3.895,1.623,4.22,1.623,4.544,1.623,4.544,2.6-4.869,10.711-4.869,10.711l.649,17.528-24.019-.649,1.623-17.2Z" transform="translate(-692.777 -434.273)"/><path class="c" d="M822.856,576.22s-1.948,17.2-.649,18.5,6.492,4.869,6.492,4.869v-3.9l-2.6-4.869,2.6-11.361Z" transform="translate(-673.216 -475.094)"/><path class="c" d="M973.985,573.692s-1.136,17.69-1.136,18.339-2.921,2.921-3.9,2.921-1.623-1.623-1.623-1.623l2.272-2.6-1.623-13.308Z" transform="translate(-790.75 -473.053)"/><path class="b" d="M922.6,687.5s14.606-8.115,14.931,0-7.466,11.361-7.466,11.361-20.124,6.034-20.936,3.829-2.434-5.776-1.136-6.1,2.921-.974,3.57-.324,8.764-4.869,8.764-4.869Z" transform="translate(-742.444 -562.029)"/><path class="g" d="M983.16,697.562a18.461,18.461,0,0,0-3.9,2.272c-.974.974-5.193,2.6-5.193,2.6" transform="translate(-796.192 -573.065)"/><path class="f" d="M825.653,533.052l-1.948-.649s-7.141,7.466-4.869,9.413,3.57,2.6,4.22,3.246,3.9.974,3.9.974Z" transform="translate(-670.495 -439.715)"/><path class="f" d="M960.075,544.2l2.921.649a47.636,47.636,0,0,0,2.921,5.518c.649.649-.974.325-1.948,1.623s-1.948,3.57-3.9,3.57-4.544-3.246-4.544-3.246Z" transform="translate(-781.223 -449.241)"/><path class="b" d="M777.751,698.221s-12.334-8.764-16.554-2.272S779.373,711.2,782.619,712.5s6.167,2.6,6.167,2.6,2.921-7.141,2.921-8.439-2.272-1.3-2.921-1.3-3.57-.649-4.22-1.623S777.751,698.221,777.751,698.221Z" transform="translate(-623.891 -569.83)"/><path class="g" d="M813.966,705.988a18.785,18.785,0,0,0,6.167,3.246,6.033,6.033,0,0,1,3.9,2.272" transform="translate(-666.923 -579.869)"/><path class="h" d="M837.731,635.274l.259,13.743a1.72,1.72,0,0,0,1.739,1.688l25.575-.287A1.721,1.721,0,0,0,867,648.8l.776-13.456a1.721,1.721,0,0,0-1.718-1.82H839.451a1.721,1.721,0,0,0-1.72,1.753Z" transform="translate(-686.11 -521.358)"/><path class="b" d="M891.872,423.04s.416,1.387-1.941,2.634-3.05,5.962-.277,7.349,3.605,3.189,2.219,4.437-3.882,4.576-.555,5.408,3.744,2.5,2.773,3.189,2.219-1.248,2.219-1.248.555,3.328,3.466,2.5,5.817-15.955,2.571-19.85C899.329,423.834,891.872,423.04,891.872,423.04Z" transform="translate(-726.578 -351.416)"/><path class="b" d="M904.13,411.659c0-2.031,6.078-.572,8.684,2.265,1.8,1.964,4.545,4.919,2.248,7s3.937,4.813,5.608,5.641,4.972,3.36,1.992,5.058-2.932,3.413-1.81,3.819-2.473-.6-2.473-.6.363,3.354-2.665,3.338S904,421.519,906.073,416.893C908,412.592,904.13,411.659,904.13,411.659Z" transform="translate(-739.722 -341.462)"/><path class="b" d="M873.475,413.2c-8.127-.489-8.943,5.628-8.943,5.628.056,3.54,5.678,1.815,7.24,2.343,1.884-1.355,5.515-3.919,8.112-5.749a12.282,12.282,0,0,0-6.409-2.222Z" transform="translate(-707.75 -343.45)"/><path class="i" d="M677.09,368.872s-7.29-34.167-52.921-58.952" transform="translate(-513.681 -260.083)"/><path class="j" d="M574.008,254.891l.091.375-1.846.448.581,1.808-.367.118-.708-2.2Z" transform="translate(-461.639 -205.799)"/><path class="f" d="M70.8,756.052c0,4.327-2.572,5.838-5.746,5.838l-.22,0c-.147,0-.293-.01-.437-.02-2.864-.2-5.089-1.791-5.089-5.816,0-4.165,5.322-9.421,5.722-9.809h0l.023-.022S70.8,751.724,70.8,756.052Z" transform="translate(-57.609 -612.351)"/><path class="j" d="M78.371,761.229l2.1-2.937-2.107,3.259-.006.337c-.147,0-.293-.01-.437-.02l.227-4.33,0-.034,0-.006.021-.409-2.112-3.267,2.119,2.96,0,.087.171-3.271-1.808-3.376,1.83,2.8.178-6.782v0l-.03,5.348,1.8-2.12-1.808,2.581-.048,2.929,1.681-2.811-1.688,3.242-.027,1.628,2.44-3.912-2.449,4.48Z" transform="translate(-71.138 -612.352)"/><path class="b" d="M214.5,787.622l1.229-.913s.814,4.545-.094,5.226-4.312,1.816-4.312,3.178-7.717,3.178-7.944,1.135a4.5,4.5,0,0,1,.681-3.178s3.632-3.632,4.085-4.312,1.589-2.043,1.589-2.043Z" transform="translate(-173.903 -645.043)"/><path class="b" d="M167,487.548s.034.2.093.565c.055.325.129.783.22,1.348.953,5.817,3.734,22.942,3.545,23.507-.227.681-1.816,3.178,0,3.859a1.408,1.408,0,0,1,.565.615,13.194,13.194,0,0,1,.96,2.265,99.536,99.536,0,0,1,2.91,11.65c.293,1.53.493,2.76.552,3.4a1.851,1.851,0,0,1,.007.449c-.227.908,1.362,4.085,2.043,4.993s1.816,1.816,1.589,2.724,5.674,3.4,6.355,1.816a28.981,28.981,0,0,0,.908-2.951c.227-.454.454-3.632-.681-4.085s-.454-8.4-1.589-9.987a21.815,21.815,0,0,1-1.564-4.474c-.238-.844-.479-1.743-.715-2.644-.958-3.693-1.807-7.408-1.807-7.408l.227-26.556-12.483-1.589-.32.706-.638,1.4Z" transform="translate(-144.559 -401.484)"/><path class="b" d="M127.826,720.895s-1.816-1.816-2.724,0-1.816,8.852-3.4,10.441-3.632,9.533-1.362,9.987,4.766-.681,4.993-2.043,4.993-8.4,4.993-9.079-3.178-3.178-3.178-3.178Z" transform="translate(-106.07 -591.253)"/><path class="b" d="M184.459,430.585s-2.951,26.556-3.632,29.052-4.312,12.029-5.447,13.618-8.4,14.526-9.306,15.207-2.724,2.5-2.724,2.5-3.4,3.4-3.859,4.086-4.312-1.362-4.539-2.724a14,14,0,0,1,.454-4.539c.227-.908-.454-2.27.227-2.951s4.085-4.086,4.085-5.674,5.9-10.895,8.171-12.937,1.816-5.447,1.816-5.447V446.927l-12.483-3.859s.681-10.895,2.27-10.895S181.962,428.542,184.459,430.585Z" transform="translate(-134.785 -357.004)"/><circle class="k" cx="7.49" cy="7.49" r="7.49" transform="translate(23.799 20.696)"/><path class="k" d="M184.053,211.945s.908,3.4,2.043,4.312-2.951,4.766-2.951,4.766l-7.717.454-1.362-4.312s2.5-4.993,1.816-8.171S184.053,211.945,184.053,211.945Z" transform="translate(-150.268 -177.858)"/><path class="f" d="M181.523,248.18s-2.043.227-2.5.908-3.632,2.724-6.128,2.27-4.085-1.135-4.539-.908S167,255.443,167,255.443l2.5,7.263-.454,19.974-.681,5.447s-1.362-1.816,4.085-.681,12.483-.908,14.753-1.135,6.128-.908,6.355-2.27-.681-6.355-.681-6.355l-3.632-15.207-2.27-8.171Z" transform="translate(-144.559 -210.234)"/><path class="h" d="M231.271,240.819s1.92-1.018,2.6-.11,9.306,2.27,9.306,2.951,1.816,19.066,1.362,20.654.908,3.4.908,3.4l1.589,6.809s4.312,12.937,2.5,13.391a11.818,11.818,0,0,1-4.086,0c-.681,0-.454-8.625-2.27-10.895s-4.312-7.944-4.766-9.079-6.128-16.8-5.9-18.612S231.271,240.819,231.271,240.819Z" transform="translate(-196.455 -203.897)"/><path class="h" d="M142.354,248.18s-1.816,0-2.043.454a24.835,24.835,0,0,1-3.4,4.085c-.908.681-4.085,3.631-4.085,4.312s6.582,5.674,6.582,5.674,2.724,13.391,1.362,17.931-3.4,15.434-2.5,16.115,2.951.908,2.951,0,1.362-10.668,2.5-12.71,4.539-14.98,3.178-18.612S142.354,248.18,142.354,248.18Z" transform="translate(-116.966 -210.234)"/><path class="k" d="M270.317,364.847s.227,7.036-2.27,10.668a43.13,43.13,0,0,0-4.085,7.717s-4.086-1.135-4.766-2.5-4.993-.227-4.993-.681,5.22-2.724,5.674-3.178,2.043-.454,2.951-1.362a6.008,6.008,0,0,0,1.135-2.951l.908-5.9Z" transform="translate(-214.969 -304.431)"/><path class="b" d="M176.743,144.165a4.317,4.317,0,0,0,1.68-.385,2.249,2.249,0,0,0,.575-3.33,4.3,4.3,0,0,0-.8-.642l-1.725-1.174a8.439,8.439,0,0,0-2.434-1.292,7.6,7.6,0,0,0-2.488-.147,16.812,16.812,0,0,0-4.767.867,7.977,7.977,0,0,0-3.862,2.826,8.49,8.49,0,0,0-.676,7.4,25.115,25.115,0,0,0,3.839,6.647l.781-3.812a1.407,1.407,0,0,1,.442-.913c.7-.5,1.561.526,2.422.519a1.451,1.451,0,0,0,1.228-.972,5.537,5.537,0,0,0,.272-1.631c.1-1.168.511-2.793,1.617-3.437C173.879,144.093,175.585,144.27,176.743,144.165Z" transform="translate(-140.296 -120.597)"/><path class="d" d="M231.6,498.673s-.767,22.173-1.221,22.854,0-22.924,0-22.924Z" transform="translate(-195.57 -412.426)"/><path class="h" d="M283.664,257.607h1.816s7.717,10.441,6.809,11.122,0,2.5,0,2.5l1.816,3.4s2.27,2.043,1.589,2.5a8.294,8.294,0,0,0-1.589,2.27s-4.539-.681-5.9,2.043l-2.944-3.716Z" transform="translate(-238.757 -217.845)"/><rect class="b" width="6.741" height="12.562" transform="translate(39.318 45.693) rotate(-22.438)"/><ellipse class="f" cx="1.348" cy="1.239" rx="1.348" ry="1.239" transform="translate(42.627 48.155) rotate(-22.438)"/><path class="k" d="M177.069,310.975S160.727,324.594,158,320.281s2.951-7.944,2.951-7.944a19.992,19.992,0,0,0,10.668-3.4l5.674-2.5s5.18-7.4,6.945-4.579S181.228,309.574,177.069,310.975Z" transform="translate(-136.701 -253.056)"/><path class="h" d="M131.512,289.426l-2.5.908v6.809l-.908,1.362s.227,2.724.908,3.4,2.043.454,1.589,2.043a8.6,8.6,0,0,0-.227,3.178s4.085,5.22,4.312,4.539,3.4-9.079,3.858-9.079-4.539-13.164-4.539-13.164Z" transform="translate(-113.16 -243.536)"/><path class="b" d="M280.524,451.411s2.347-2.27,1.173-2.383-5.259-2.383-5.94-1.248S280.524,451.411,280.524,451.411Z" transform="translate(-232.325 -371.135)"/><ellipse class="l" cx="3.5" cy="1.5" rx="3.5" ry="1.5" transform="translate(89 34)"/><path class="i" d="M504.649,219.36a30.368,30.368,0,0,0-22.149,0v-9.052a38.335,38.335,0,0,1,22.149,0Z" transform="translate(-399.297 -178.336)"/><path class="i" d="M514.486,222.107a21.918,21.918,0,0,0-15.986,0v-6.533a27.668,27.668,0,0,1,15.986,0Z" transform="translate(-412.216 -182.955)"/><ellipse class="i" cx="4" cy="2" rx="4" ry="2" transform="translate(90 33)"/><ellipse class="l" cx="3.274" cy="1.733" rx="3.274" ry="1.733" transform="matrix(0.98, -0.2, 0.2, 0.98, 91.339, 45.093)"/><path class="i" d="M514.322,269.244a30.368,30.368,0,0,0-21.7,4.429l-1.81-8.869a38.335,38.335,0,0,1,21.7-4.429Z" transform="translate(-406.007 -219.95)"/><path class="i" d="M524.128,273.454a21.918,21.918,0,0,0-15.663,3.2l-1.307-6.4a27.668,27.668,0,0,1,15.663-3.2Z" transform="translate(-419.207 -225.378)"/><ellipse class="i" cx="3.274" cy="1.733" rx="3.274" ry="1.733" transform="matrix(0.98, -0.2, 0.2, 0.98, 92.317, 44.107)"/><ellipse class="l" cx="1.733" cy="3.274" rx="1.733" ry="3.274" transform="translate(90.828 58.412) rotate(-86.019)"/><path class="i" d="M509.808,332.783a30.368,30.368,0,0,0-22.1-1.538l.628-9.03a38.335,38.335,0,0,1,22.1,1.538Z" transform="translate(-403.505 -269.239)"/><path class="i" d="M520.3,335.416a21.918,21.918,0,0,0-15.947-1.11l.453-6.518a27.668,27.668,0,0,1,15.947,1.11Z" transform="translate(-416.938 -273.954)"/><ellipse class="i" cx="1.733" cy="3.274" rx="1.733" ry="3.274" transform="translate(92.035 57.724) rotate(-86.019)"/><path class="i" d="M363.7,263.982s-14.155-1.937-24.264,3.988" transform="translate(-283.79 -222.748)"/><path class="j" d="M287.776,224.459l.368.116-.575,1.81,1.848.441-.09.375-2.25-.538Z" transform="translate(-231.786 -181.228)"/></svg>